<svg version="1.1" viewBox="0.0 0.0 544.0 371.0" fill="none" stroke="none" stroke-linecap="square" stroke-miterlimit="10" width="544" height="371" xmlns:xlink="http://www.w3.org/1999/xlink" xmlns="http://www.w3.org/2000/svg"><path fill="#ffffff" d="M0 0L544.0 0L544.0 371.0L0 371.0L0 0Z" fill-rule="nonzero"/><path stroke="#cccccc" stroke-width="1.0" stroke-linecap="butt" d="M77.5 88.5L77.5 300.5" fill-rule="nonzero"/><path stroke="#cccccc" stroke-width="1.0" stroke-linecap="butt" d="M212.5 88.5L212.5 300.5" fill-rule="nonzero"/><path stroke="#cccccc" stroke-width="1.0" stroke-linecap="butt" d="M348.5 88.5L348.5 300.5" fill-rule="nonzero"/><path stroke="#cccccc" stroke-width="1.0" stroke-linecap="butt" d="M483.5 88.5L483.5 300.5" fill-rule="nonzero"/><path stroke="#333333" stroke-width="1.0" stroke-linecap="butt" d="M77.5 300.5L525.5 300.5" fill-rule="nonzero"/><path stroke="#cccccc" stroke-width="1.0" stroke-linecap="butt" d="M77.5 229.5L525.5 229.5" fill-rule="nonzero"/><path stroke="#cccccc" stroke-width="1.0" stroke-linecap="butt" d="M77.5 159.5L525.5 159.5" fill-rule="nonzero"/><path stroke="#cccccc" stroke-width="1.0" stroke-linecap="butt" d="M77.5 88.5L525.5 88.5" fill-rule="nonzero"/><clipPath id="id_0"><path d="M77.55 88.28333L525.45 88.28333L525.45 300.45L77.55 300.45L77.55 88.28333Z" clip-rule="nonzero"/></clipPath><path stroke="#ea4335" stroke-width="2.0" stroke-linecap="butt" clip-path="url(#id_0)" d="M77.55 297.16818L118.26818 295.49542L158.98636 296.20578L199.70454 291.44788L240.42273 291.78937L281.1409 287.5407L321.8591 277.70618L362.57727 261.40543L403.29544 224.53734L444.01364 173.98203L484.7318 94.98426L525.45 92.412674" fill-rule="nonzero"/><path fill="#000000" fill-opacity="0.0" clip-path="url(#id_0)" d="M80.55 297.16818C80.55 298.82504 79.206856 300.16818 77.55 300.16818C75.89314 300.16818 74.55 298.82504 74.55 297.16818C74.55 295.51132 75.89314 294.16818 77.55 294.16818C79.206856 294.16818 80.55 295.51132 80.55 297.16818Z" fill-rule="nonzero"/><path fill="#000000" fill-opacity="0.0" clip-path="url(#id_0)" d="M121.26818 295.49542C121.26818 297.15225 119.92503 298.49542 118.26818 298.49542C116.61133 298.49542 115.26818 297.15225 115.26818 295.49542C115.26818 293.83856 116.61133 292.49542 118.26818 292.49542C119.92503 292.49542 121.26818 293.83856 121.26818 295.49542Z" fill-rule="nonzero"/><path fill="#000000" fill-opacity="0.0" clip-path="url(#id_0)" d="M161.98636 296.20578C161.98636 297.8626 160.64322 299.20578 158.98636 299.20578C157.32951 299.20578 155.98636 297.8626 155.98636 296.20578C155.98636 294.54892 157.32951 293.20578 158.98636 293.20578C160.64322 293.20578 161.98636 294.54892 161.98636 296.20578Z" fill-rule="nonzero"/><path fill="#000000" fill-opacity="0.0" clip-path="url(#id_0)" d="M202.70454 291.44788C202.70454 293.10474 201.3614 294.44788 199.70454 294.44788C198.04768 294.44788 196.70454 293.10474 196.70454 291.44788C196.70454 289.79102 198.04768 288.44788 199.70454 288.44788C201.3614 288.44788 202.70454 289.79102 202.70454 291.44788Z" fill-rule="nonzero"/><path fill="#000000" fill-opacity="0.0" clip-path="url(#id_0)" d="M243.42273 291.78937C243.42273 293.44623 242.07957 294.78937 240.42273 294.78937C238.76587 294.78937 237.42273 293.44623 237.42273 291.78937C237.42273 290.13254 238.76587 288.78937 240.42273 288.78937C242.07957 288.78937 243.42273 290.13254 243.42273 291.78937Z" fill-rule="nonzero"/><path fill="#000000" fill-opacity="0.0" clip-path="url(#id_0)" d="M284.1409 287.5407C284.1409 289.19757 282.79776 290.5407 281.1409 290.5407C279.48407 290.5407 278.1409 289.19757 278.1409 287.5407C278.1409 285.88385 279.48407 284.5407 281.1409 284.5407C282.79776 284.5407 284.1409 285.88385 284.1409 287.5407Z" fill-rule="nonzero"/><path fill="#000000" fill-opacity="0.0" clip-path="url(#id_0)" d="M324.8591 277.70618C324.8591 279.36304 323.51593 280.70618 321.8591 280.70618C320.20224 280.70618 318.8591 279.36304 318.8591 277.70618C318.8591 276.04932 320.20224 274.70618 321.8591 274.70618C323.51593 274.70618 324.8591 276.04932 324.8591 277.70618Z" fill-rule="nonzero"/><path fill="#000000" fill-opacity="0.0" clip-path="url(#id_0)" d="M365.57727 261.40543C365.57727 263.0623 364.23413 264.40543 362.57727 264.40543C360.9204 264.40543 359.57727 263.0623 359.57727 261.40543C359.57727 259.7486 360.9204 258.40543 362.57727 258.40543C364.23413 258.40543 365.57727 259.7486 365.57727 261.40543Z" fill-rule="nonzero"/><path fill="#000000" fill-opacity="0.0" clip-path="url(#id_0)" d="M406.29544 224.53734C406.29544 226.1942 404.9523 227.53734 403.29544 227.53734C401.6386 227.53734 400.29544 226.1942 400.29544 224.53734C400.29544 222.8805 401.6386 221.53734 403.29544 221.53734C404.9523 221.53734 406.29544 222.8805 406.29544 224.53734Z" fill-rule="nonzero"/><path fill="#000000" fill-opacity="0.0" clip-path="url(#id_0)" d="M447.01364 173.98203C447.01364 175.63889 445.6705 176.98203 444.01364 176.98203C442.35678 176.98203 441.01364 175.63889 441.01364 173.98203C441.01364 172.32516 442.35678 170.98203 444.01364 170.98203C445.6705 170.98203 447.01364 172.32516 447.01364 173.98203Z" fill-rule="nonzero"/><path fill="#000000" fill-opacity="0.0" clip-path="url(#id_0)" d="M487.7318 94.98426C487.7318 96.64112 486.38867 97.98426 484.7318 97.98426C483.07495 97.98426 481.7318 96.64112 481.7318 94.98426C481.7318 93.32741 483.07495 91.98426 484.7318 91.98426C486.38867 91.98426 487.7318 93.32741 487.7318 94.98426Z" fill-rule="nonzero"/><path fill="#000000" fill-opacity="0.0" clip-path="url(#id_0)" d="M528.45 92.412674C528.45 94.069534 527.1069 95.412674 525.45 95.412674C523.79315 95.412674 522.45 94.069534 522.45 92.412674C522.45 90.75582 523.79315 89.412674 525.45 89.412674C527.1069 89.412674 528.45 90.75582 528.45 92.412674Z" fill-rule="nonzero"/><path fill="#000000" d="M270.54688 346.6844L271.60938 346.59064Q271.6875 347.2469 271.96875 347.65314Q272.25 348.0594 272.82812 348.325Q273.42188 348.575 274.15625 348.575Q274.79688 348.575 275.29688 348.3875Q275.79688 348.1844 276.03125 347.85626Q276.28125 347.5125 276.28125 347.1219Q276.28125 346.71564 276.04688 346.41876Q275.8125 346.10626 275.28125 345.90314Q274.92188 345.7625 273.73438 345.48126Q272.5625 345.2 272.09375 344.95Q271.46875 344.6219 271.17188 344.15314Q270.875 343.66876 270.875 343.075Q270.875 342.4344 271.23438 341.8719Q271.60938 341.29376 272.3125 341.0125Q273.03125 340.71564 273.89062 340.71564Q274.84375 340.71564 275.57812 341.02814Q276.3125 341.325 276.70312 341.9344Q277.09375 342.52814 277.125 343.27814L276.03125 343.35626Q275.9375 342.54376 275.42188 342.1375Q274.92188 341.71564 273.9375 341.71564Q272.90625 341.71564 272.4375 342.09064Q271.96875 342.46564 271.96875 342.9969Q271.96875 343.46564 272.29688 343.7625Q272.625 344.0594 274.0 344.3719Q275.39062 344.6844 275.90625 344.91876Q276.65625 345.27814 277.01562 345.8094Q277.375 346.325 277.375 347.02814Q277.375 347.71564 276.98438 348.325Q276.59375 348.91876 275.85938 349.2625Q275.125 349.59064 274.20312 349.59064Q273.03125 349.59064 272.23438 349.2625Q271.45312 348.91876 271.0 348.23126Q270.5625 347.54376 270.54688 346.6844ZM278.79688 342.075L278.79688 340.85626L279.85938 340.85626L279.85938 342.075L278.79688 342.075ZM278.79688 349.45L278.79688 343.23126L279.85938 343.23126L279.85938 349.45L278.79688 349.45ZM281.23438 349.45L281.23438 348.59064L285.20312 344.04376Q284.51562 344.075 284.0 344.075L281.46875 344.075L281.46875 343.23126L286.5625 343.23126L286.5625 343.91876L283.1875 347.8719L282.53125 348.59064Q283.25 348.54376 283.85938 348.54376L286.75 348.54376L286.75 349.45L281.23438 349.45ZM291.04688 347.45L292.14062 347.575Q291.89062 348.52814 291.1875 349.0594Q290.48438 349.59064 289.40625 349.59064Q288.04688 349.59064 287.23438 348.7469Q286.4375 347.90314 286.4375 346.3875Q286.4375 344.825 287.25 343.96564Q288.0625 343.09064 289.34375 343.09064Q290.59375 343.09064 291.375 343.9344Q292.17188 344.77814 292.17188 346.325Q292.17188 346.41876 292.17188 346.60626L287.53125 346.60626Q287.59375 347.6375 288.10938 348.1844Q288.625 348.71564 289.40625 348.71564Q289.98438 348.71564 290.39062 348.41876Q290.8125 348.10626 291.04688 347.45ZM287.59375 345.7469L291.0625 345.7469Q291.0 344.95 290.67188 344.5594Q290.15625 343.95 289.35938 343.95Q288.625 343.95 288.125 344.4344Q287.64062 344.91876 287.59375 345.7469ZM298.8125 351.98126Q297.9375 350.8719 297.32812 349.40314Q296.73438 347.91876 296.73438 346.34064Q296.73438 344.95 297.17188 343.66876Q297.70312 342.1844 298.8125 340.71564L299.5625 340.71564Q298.85938 341.9344 298.625 342.45Q298.26562 343.2625 298.0625 344.1375Q297.8125 345.23126 297.8125 346.34064Q297.8125 349.16876 299.5625 351.98126L298.8125 351.98126ZM301.76562 349.45L300.78125 349.45L300.78125 340.85626L301.84375 340.85626L301.84375 343.91876Q302.51562 343.09064 303.54688 343.09064Q304.125 343.09064 304.625 343.325Q305.14062 343.54376 305.46875 343.96564Q305.8125 344.3875 306.0 344.98126Q306.1875 345.575 306.1875 346.2469Q306.1875 347.84064 305.39062 348.71564Q304.59375 349.59064 303.5 349.59064Q302.39062 349.59064 301.76562 348.66876L301.76562 349.45ZM301.75 346.29376Q301.75 347.40314 302.0625 347.90314Q302.5625 348.71564 303.40625 348.71564Q304.09375 348.71564 304.59375 348.1219Q305.10938 347.52814 305.10938 346.325Q305.10938 345.10626 304.625 344.52814Q304.14062 343.95 303.45312 343.95Q302.76562 343.95 302.25 344.5594Q301.75 345.15314 301.75 346.29376ZM307.75 351.84064L307.625 350.85626Q307.96875 350.95 308.23438 350.95Q308.57812 350.95 308.78125 350.825Q309.0 350.71564 309.14062 350.5125Q309.23438 350.34064 309.46875 349.71564Q309.48438 349.6375 309.5625 349.46564L307.1875 343.23126L308.32812 343.23126L309.625 346.825Q309.875 347.5125 310.07812 348.27814Q310.26562 347.54376 310.51562 346.85626L311.84375 343.23126L312.89062 343.23126L310.53125 349.5594Q310.14062 350.575 309.9375 350.96564Q309.65625 351.4969 309.28125 351.73126Q308.92188 351.98126 308.42188 351.98126Q308.125 351.98126 307.75 351.84064ZM315.09375 348.5125L315.25 349.4344Q314.79688 349.52814 314.45312 349.52814Q313.875 349.52814 313.5625 349.35626Q313.25 349.16876 313.10938 348.8719Q312.98438 348.575 312.98438 347.6219L312.98438 344.04376L312.21875 344.04376L312.21875 343.23126L312.98438 343.23126L312.98438 341.6844L314.03125 341.0594L314.03125 343.23126L315.09375 343.23126L315.09375 344.04376L314.03125 344.04376L314.03125 347.6844Q314.03125 348.1375 314.07812 348.2625Q314.14062 348.3875 314.26562 348.46564Q314.39062 348.54376 314.625 348.54376Q314.8125 348.54376 315.09375 348.5125ZM320.04688 347.45L321.14062 347.575Q320.89062 348.52814 320.1875 349.0594Q319.48438 349.59064 318.40625 349.59064Q317.04688 349.59064 316.23438 348.7469Q315.4375 347.90314 315.4375 346.3875Q315.4375 344.825 316.25 343.96564Q317.0625 343.09064 318.34375 343.09064Q319.59375 343.09064 320.375 343.9344Q321.17188 344.77814 321.17188 346.325Q321.17188 346.41876 321.17188 346.60626L316.53125 346.60626Q316.59375 347.6375 317.10938 348.1844Q317.625 348.71564 318.40625 348.71564Q318.98438 348.71564 319.39062 348.41876Q319.8125 348.10626 320.04688 347.45ZM316.59375 345.7469L320.0625 345.7469Q320.0 344.95 319.67188 344.5594Q319.15625 343.95 318.35938 343.95Q317.625 343.95 317.125 344.4344Q316.64062 344.91876 316.59375 345.7469ZM322.375 347.59064L323.40625 347.4344Q323.5 348.0594 323.89062 348.3875Q324.29688 348.71564 325.03125 348.71564Q325.75 348.71564 326.09375 348.4344Q326.45312 348.1375 326.45312 347.73126Q326.45312 347.3719 326.14062 347.16876Q325.92188 347.02814 325.0625 346.8094Q323.90625 346.5125 323.45312 346.3094Q323.01562 346.09064 322.78125 345.71564Q322.54688 345.34064 322.54688 344.8719Q322.54688 344.46564 322.73438 344.10626Q322.92188 343.7469 323.25 343.5125Q323.5 343.34064 323.92188 343.21564Q324.34375 343.09064 324.84375 343.09064Q325.5625 343.09064 326.10938 343.3094Q326.67188 343.5125 326.9375 343.8719Q327.20312 344.23126 327.29688 344.825L326.26562 344.96564Q326.20312 344.4969 325.85938 344.23126Q325.53125 343.95 324.90625 343.95Q324.1875 343.95 323.875 344.2Q323.5625 344.4344 323.5625 344.7625Q323.5625 344.96564 323.6875 345.1219Q323.82812 345.29376 324.09375 345.40314Q324.25 345.46564 325.03125 345.66876Q326.15625 345.98126 326.59375 346.16876Q327.03125 346.35626 327.28125 346.71564Q327.53125 347.075 327.53125 347.6219Q327.53125 348.15314 327.21875 348.6219Q326.92188 349.075 326.34375 349.34064Q325.76562 349.59064 325.03125 349.59064Q323.8125 349.59064 323.17188 349.09064Q322.54688 348.575 322.375 347.59064ZM330.48438 351.98126L329.73438 351.98126Q331.48438 349.16876 331.48438 346.34064Q331.48438 345.2469 331.23438 344.15314Q331.03125 343.27814 330.67188 342.46564Q330.4375 341.95 329.73438 340.71564L330.48438 340.71564Q331.57812 342.1844 332.10938 343.66876Q332.5625 344.95 332.5625 346.34064Q332.5625 347.91876 331.95312 349.40314Q331.34375 350.8719 330.48438 351.98126Z" fill-rule="nonzero"/><path fill="#000000" d="M26.784388 265.3198L26.690638 264.2573Q27.346888 264.17917 27.753138 263.89792Q28.159388 263.61667 28.425013 263.03854Q28.675013 262.4448 28.675013 261.71042Q28.675013 261.0698 28.487513 260.5698Q28.284388 260.0698 27.956263 259.83542Q27.612513 259.58542 27.221888 259.58542Q26.815638 259.58542 26.518763 259.8198Q26.206263 260.05417 26.003138 260.58542Q25.862513 260.9448 25.581263 262.1323Q25.300013 263.30417 25.050013 263.77292Q24.721888 264.39792 24.253138 264.6948Q23.768763 264.99167 23.175013 264.99167Q22.534388 264.99167 21.971888 264.6323Q21.393763 264.2573 21.112513 263.55417Q20.815638 262.83542 20.815638 261.97604Q20.815638 261.02292 21.128138 260.28854Q21.425013 259.55417 22.034388 259.16354Q22.628138 258.77292 23.378138 258.74167L23.456263 259.83542Q22.643763 259.92917 22.237513 260.4448Q21.815638 260.9448 21.815638 261.92917Q21.815638 262.96042 22.190638 263.42917Q22.565638 263.89792 23.096888 263.89792Q23.565638 263.89792 23.862513 263.5698Q24.159388 263.24167 24.471888 261.86667Q24.784388 260.47604 25.018763 259.96042Q25.378138 259.21042 25.909388 258.85104Q26.425013 258.49167 27.128138 258.49167Q27.815638 258.49167 28.425013 258.8823Q29.018763 259.27292 29.362513 260.0073Q29.690638 260.74167 29.690638 261.66354Q29.690638 262.83542 29.362513 263.6323Q29.018763 264.41354 28.331263 264.86667Q27.643763 265.30417 26.784388 265.3198ZM31.940638 257.0698L23.331263 257.0698L23.331263 256.11667L24.128138 256.11667Q23.659388 255.77292 23.425013 255.35104Q23.190638 254.91354 23.190638 254.30417Q23.190638 253.5073 23.596888 252.89792Q24.003138 252.28854 24.753138 251.99167Q25.503138 251.67917 26.393763 251.67917Q27.346888 251.67917 28.112513 252.02292Q28.878138 252.35104 29.284388 253.0073Q29.690638 253.66354 29.690638 254.3823Q29.690638 254.91354 29.471888 255.33542Q29.237513 255.7573 28.909388 256.02292L31.940638 256.02292L31.940638 257.0698ZM26.471888 256.11667Q27.675013 256.11667 28.253138 255.6323Q28.815638 255.14792 28.815638 254.46042Q28.815638 253.7573 28.221888 253.2573Q27.628138 252.7573 26.378138 252.7573Q25.190638 252.7573 24.612513 253.24167Q24.018763 253.72604 24.018763 254.41354Q24.018763 255.08542 24.643763 255.60104Q25.268763 256.11667 26.471888 256.11667ZM27.550013 245.8198L27.675013 244.72604Q28.628138 244.97604 29.159388 245.67917Q29.690638 246.3823 29.690638 247.46042Q29.690638 248.8198 28.846888 249.6323Q28.003138 250.42917 26.487513 250.42917Q24.925013 250.42917 24.065638 249.61667Q23.190638 248.80417 23.190638 247.52292Q23.190638 246.27292 24.034388 245.49167Q24.878138 244.6948 26.425013 244.6948Q26.518763 244.6948 26.706263 244.6948L26.706263 249.33542Q27.737513 249.27292 28.284388 248.7573Q28.815638 248.24167 28.815638 247.46042Q28.815638 246.8823 28.518763 246.47604Q28.206263 246.05417 27.550013 245.8198ZM25.846888 249.27292L25.846888 245.80417Q25.050013 245.86667 24.659388 246.1948Q24.050013 246.71042 24.050013 247.5073Q24.050013 248.24167 24.534388 248.74167Q25.018763 249.22604 25.846888 249.27292ZM27.550013 238.8198L27.675013 237.72604Q28.628138 237.97604 29.159388 238.67917Q29.690638 239.3823 29.690638 240.46042Q29.690638 241.8198 28.846888 242.6323Q28.003138 243.42917 26.487513 243.42917Q24.925013 243.42917 24.065638 242.61667Q23.190638 241.80417 23.190638 240.52292Q23.190638 239.27292 24.034388 238.49167Q24.878138 237.6948 26.425013 237.6948Q26.518763 237.6948 26.706263 237.6948L26.706263 242.33542Q27.737513 242.27292 28.284388 241.7573Q28.815638 241.24167 28.815638 240.46042Q28.815638 239.8823 28.518763 239.47604Q28.206263 239.05417 27.550013 238.8198ZM25.846888 242.27292L25.846888 238.80417Q25.050013 238.86667 24.659388 239.1948Q24.050013 239.71042 24.050013 240.5073Q24.050013 241.24167 24.534388 241.74167Q25.018763 242.22604 25.846888 242.27292ZM29.550013 232.03854L28.768763 232.03854Q29.690638 232.6323 29.690638 233.77292Q29.690638 234.52292 29.284388 235.14792Q28.862513 235.77292 28.128138 236.11667Q27.393763 236.46042 26.440638 236.46042Q25.518763 236.46042 24.753138 236.14792Q23.987513 235.83542 23.596888 235.21042Q23.190638 234.58542 23.190638 233.8198Q23.190638 233.2573 23.425013 232.8198Q23.659388 232.3823 24.034388 232.10104L20.956263 232.10104L20.956263 231.05417L29.550013 231.05417L29.550013 232.03854ZM26.440638 235.36667Q27.643763 235.36667 28.237513 234.86667Q28.815638 234.36667 28.815638 233.67917Q28.815638 232.99167 28.253138 232.5073Q27.690638 232.02292 26.534388 232.02292Q25.253138 232.02292 24.659388 232.52292Q24.065638 233.0073 24.065638 233.72604Q24.065638 234.42917 24.643763 234.89792Q25.206263 235.36667 26.440638 235.36667ZM29.550013 221.99167L28.628138 221.99167Q29.690638 222.72604 29.690638 223.97604Q29.690638 224.52292 29.487513 225.0073Q29.268763 225.47604 28.956263 225.71042Q28.628138 225.9448 28.159388 226.03854Q27.862513 226.10104 27.175013 226.10104L23.331263 226.10104L23.331263 225.03854L26.784388 225.03854Q27.596888 225.03854 27.893763 224.97604Q28.300013 224.8823 28.550013 224.5698Q28.784388 224.24167 28.784388 223.7573Q28.784388 223.28854 28.550013 222.8823Q28.300013 222.46042 27.878138 222.28854Q27.456263 222.10104 26.659388 222.10104L23.331263 222.10104L23.331263 221.05417L29.550013 221.05417L29.550013 221.99167ZM31.940638 219.0698L23.331263 219.0698L23.331263 218.11667L24.128138 218.11667Q23.659388 217.77292 23.425013 217.35104Q23.190638 216.91354 23.190638 216.30417Q23.190638 215.5073 23.596888 214.89792Q24.003138 214.28854 24.753138 213.99167Q25.503138 213.67917 26.393763 213.67917Q27.346888 213.67917 28.112513 214.02292Q28.878138 214.35104 29.284388 215.0073Q29.690638 215.66354 29.690638 216.3823Q29.690638 216.91354 29.471888 217.33542Q29.237513 217.7573 28.909388 218.02292L31.940638 218.02292L31.940638 219.0698ZM26.471888 218.11667Q27.675013 218.11667 28.253138 217.6323Q28.815638 217.14792 28.815638 216.46042Q28.815638 215.7573 28.221888 215.2573Q27.628138 214.7573 26.378138 214.7573Q25.190638 214.7573 24.612513 215.24167Q24.018763 215.72604 24.018763 216.41354Q24.018763 217.08542 24.643763 217.60104Q25.268763 218.11667 26.471888 218.11667ZM26.440638 209.46042Q24.706263 209.46042 23.878138 208.5073Q23.190638 207.71042 23.190638 206.55417Q23.190638 205.27292 24.034388 204.46042Q24.862513 203.6323 26.346888 203.6323Q27.550013 203.6323 28.237513 203.99167Q28.925013 204.35104 29.315638 205.05417Q29.690638 205.74167 29.690638 206.55417Q29.690638 207.85104 28.862513 208.66354Q28.018763 209.46042 26.440638 209.46042ZM26.440638 208.3823Q27.628138 208.3823 28.221888 207.86667Q28.815638 207.33542 28.815638 206.55417Q28.815638 205.7573 28.221888 205.24167Q27.628138 204.72604 26.409388 204.72604Q25.253138 204.72604 24.659388 205.2573Q24.065638 205.77292 24.065638 206.55417Q24.065638 207.33542 24.659388 207.86667Q25.237513 208.3823 26.440638 208.3823ZM29.550013 200.35104L23.331263 202.71042L23.331263 201.60104L27.050013 200.2573Q27.659388 200.05417 28.300013 199.86667Q27.815638 199.72604 27.128138 199.47604L23.331263 198.08542L23.331263 197.0073L29.550013 199.36667L29.550013 200.35104ZM27.550013 192.8198L27.675013 191.72604Q28.628138 191.97604 29.159388 192.67917Q29.690638 193.3823 29.690638 194.46042Q29.690638 195.8198 28.846888 196.6323Q28.003138 197.42917 26.487513 197.42917Q24.925013 197.42917 24.065638 196.61667Q23.190638 195.80417 23.190638 194.52292Q23.190638 193.27292 24.034388 192.49167Q24.878138 191.6948 26.425013 191.6948Q26.518763 191.6948 26.706263 191.6948L26.706263 196.33542Q27.737513 196.27292 28.284388 195.7573Q28.815638 195.24167 28.815638 194.46042Q28.815638 193.8823 28.518763 193.47604Q28.206263 193.05417 27.550013 192.8198ZM25.846888 196.27292L25.846888 192.80417Q25.050013 192.86667 24.659388 193.1948Q24.050013 193.71042 24.050013 194.5073Q24.050013 195.24167 24.534388 195.74167Q25.018763 196.22604 25.846888 196.27292ZM29.550013 190.08542L23.331263 190.08542L23.331263 189.1323L24.268763 189.1323Q23.612513 188.77292 23.409388 188.47604Q23.190638 188.16354 23.190638 187.78854Q23.190638 187.2573 23.518763 186.71042L24.503138 187.0698Q24.268763 187.46042 24.268763 187.83542Q24.268763 188.1948 24.487513 188.47604Q24.690638 188.74167 25.065638 188.85104Q25.628138 189.03854 26.284388 189.03854L29.550013 189.03854L29.550013 190.08542ZM29.550013 182.10104L29.550013 183.08542L20.956263 183.08542L20.956263 182.02292L24.018763 182.02292Q23.190638 181.35104 23.190638 180.3198Q23.190638 179.74167 23.425013 179.24167Q23.643763 178.72604 24.065638 178.39792Q24.487513 178.05417 25.081263 177.86667Q25.675013 177.67917 26.346888 177.67917Q27.940638 177.67917 28.815638 178.47604Q29.690638 179.27292 29.690638 180.36667Q29.690638 181.47604 28.768763 182.10104L29.550013 182.10104ZM26.393763 182.11667Q27.503138 182.11667 28.003138 181.80417Q28.815638 181.30417 28.815638 180.46042Q28.815638 179.77292 28.221888 179.27292Q27.628138 178.7573 26.425013 178.7573Q25.206263 178.7573 24.628138 179.24167Q24.050013 179.72604 24.050013 180.41354Q24.050013 181.10104 24.659388 181.61667Q25.253138 182.11667 26.393763 182.11667ZM28.784388 172.0073Q29.284388 172.60104 29.487513 173.14792Q29.690638 173.67917 29.690638 174.30417Q29.690638 175.33542 29.190638 175.8823Q28.690638 176.42917 27.909388 176.42917Q27.456263 176.42917 27.081263 176.22604Q26.690638 176.02292 26.471888 175.67917Q26.237513 175.33542 26.128138 174.91354Q26.034388 174.61667 25.956263 173.97604Q25.815638 172.71042 25.596888 172.10104Q25.378138 172.10104 25.331263 172.10104Q24.675013 172.10104 24.409388 172.39792Q24.065638 172.80417 24.065638 173.60104Q24.065638 174.33542 24.331263 174.6948Q24.581263 175.05417 25.237513 175.22604L25.096888 176.2573Q24.440638 176.11667 24.034388 175.78854Q23.628138 175.46042 23.409388 174.85104Q23.190638 174.24167 23.190638 173.4448Q23.190638 172.64792 23.378138 172.14792Q23.565638 171.64792 23.846888 171.41354Q24.128138 171.17917 24.565638 171.08542Q24.831263 171.03854 25.534388 171.03854L26.940638 171.03854Q28.409388 171.03854 28.800013 170.97604Q29.190638 170.89792 29.550013 170.6948L29.550013 171.80417Q29.221888 171.96042 28.784388 172.0073ZM26.425013 172.10104Q26.659388 172.67917 26.831263 173.8198Q26.925013 174.47604 27.050013 174.74167Q27.159388 175.0073 27.378138 175.16354Q27.596888 175.30417 27.878138 175.30417Q28.300013 175.30417 28.581263 174.99167Q28.862513 174.66354 28.862513 174.05417Q28.862513 173.4448 28.596888 172.97604Q28.331263 172.49167 27.862513 172.27292Q27.503138 172.10104 26.815638 172.10104L26.425013 172.10104ZM27.690638 169.49167L27.534388 168.46042Q28.159388 168.36667 28.487513 167.97604Q28.815638 167.5698 28.815638 166.83542Q28.815638 166.11667 28.534388 165.77292Q28.237513 165.41354 27.831263 165.41354Q27.471888 165.41354 27.268763 165.72604Q27.128138 165.9448 26.909388 166.80417Q26.612513 167.96042 26.409388 168.41354Q26.190638 168.85104 25.815638 169.08542Q25.440638 169.3198 24.971888 169.3198Q24.565638 169.3198 24.206263 169.1323Q23.846888 168.9448 23.612513 168.61667Q23.440638 168.36667 23.315638 167.9448Q23.190638 167.52292 23.190638 167.02292Q23.190638 166.30417 23.409388 165.7573Q23.612513 165.1948 23.971888 164.92917Q24.331263 164.66354 24.925013 164.5698L25.065638 165.60104Q24.596888 165.66354 24.331263 166.0073Q24.050013 166.33542 24.050013 166.96042Q24.050013 167.67917 24.300013 167.99167Q24.534388 168.30417 24.862513 168.30417Q25.065638 168.30417 25.221888 168.17917Q25.393763 168.03854 25.503138 167.77292Q25.565638 167.61667 25.768763 166.83542Q26.081263 165.71042 26.268763 165.27292Q26.456263 164.83542 26.815638 164.58542Q27.175013 164.33542 27.721888 164.33542Q28.253138 164.33542 28.721888 164.64792Q29.175013 164.9448 29.440638 165.52292Q29.690638 166.10104 29.690638 166.83542Q29.690638 168.05417 29.190638 168.6948Q28.675013 169.3198 27.690638 169.49167ZM27.550013 157.8198L27.675013 156.72604Q28.628138 156.97604 29.159388 157.67917Q29.690638 158.3823 29.690638 159.46042Q29.690638 160.8198 28.846888 161.6323Q28.003138 162.42917 26.487513 162.42917Q24.925013 162.42917 24.065638 161.61667Q23.190638 160.80417 23.190638 159.52292Q23.190638 158.27292 24.034388 157.49167Q24.878138 156.6948 26.425013 156.6948Q26.518763 156.6948 26.706263 156.6948L26.706263 161.33542Q27.737513 161.27292 28.284388 160.7573Q28.815638 160.24167 28.815638 159.46042Q28.815638 158.8823 28.518763 158.47604Q28.206263 158.05417 27.550013 157.8198ZM25.846888 161.27292L25.846888 157.80417Q25.050013 157.86667 24.659388 158.1948Q24.050013 158.71042 24.050013 159.5073Q24.050013 160.24167 24.534388 160.74167Q25.018763 161.22604 25.846888 161.27292ZM29.550013 155.10104L20.956263 155.10104L20.956263 154.03854L29.550013 154.03854L29.550013 155.10104ZM22.175013 152.0698L20.956263 152.0698L20.956263 151.0073L22.175013 151.0073L22.175013 152.0698ZM29.550013 152.0698L23.331263 152.0698L23.331263 151.0073L29.550013 151.0073L29.550013 152.0698ZM29.550013 149.0698L23.331263 149.0698L23.331263 148.1323L24.206263 148.1323Q23.190638 147.4448 23.190638 146.14792Q23.190638 145.58542 23.393763 145.11667Q23.596888 144.6323 23.925013 144.39792Q24.253138 144.16354 24.690638 144.0698Q24.987513 144.02292 25.721888 144.02292L29.550013 144.02292L29.550013 145.0698L25.768763 145.0698Q25.112513 145.0698 24.800013 145.1948Q24.487513 145.3198 24.300013 145.6323Q24.096888 145.9448 24.096888 146.36667Q24.096888 147.03854 24.534388 147.53854Q24.956263 148.02292 26.143763 148.02292L29.550013 148.02292L29.550013 149.0698ZM27.550013 137.8198L27.675013 136.72604Q28.628138 136.97604 29.159388 137.67917Q29.690638 138.3823 29.690638 139.46042Q29.690638 140.8198 28.846888 141.6323Q28.003138 142.42917 26.487513 142.42917Q24.925013 142.42917 24.065638 141.61667Q23.190638 140.80417 23.190638 139.52292Q23.190638 138.27292 24.034388 137.49167Q24.878138 136.6948 26.425013 136.6948Q26.518763 136.6948 26.706263 136.6948L26.706263 141.33542Q27.737513 141.27292 28.284388 140.7573Q28.815638 140.24167 28.815638 139.46042Q28.815638 138.8823 28.518763 138.47604Q28.206263 138.05417 27.550013 137.8198ZM25.846888 141.27292L25.846888 137.80417Q25.050013 137.86667 24.659388 138.1948Q24.050013 138.71042 24.050013 139.5073Q24.050013 140.24167 24.534388 140.74167Q25.018763 141.22604 25.846888 141.27292Z" fill-rule="nonzero"/><path fill="#000000" d="M65.05 300.21564Q65.05 298.6844 65.3625 297.7625Q65.675 296.825 66.28438 296.325Q66.90938 295.825 67.84688 295.825Q68.53438 295.825 69.05 296.10626Q69.58125 296.3875 69.925 296.91876Q70.26875 297.4344 70.45625 298.1844Q70.64375 298.9344 70.64375 300.21564Q70.64375 301.73126 70.33125 302.65314Q70.03438 303.575 69.40938 304.09064Q68.8 304.59064 67.84688 304.59064Q66.6125 304.59064 65.89375 303.7Q65.05 302.6375 65.05 300.21564ZM66.12813 300.21564Q66.12813 302.325 66.62813 303.02814Q67.12813 303.73126 67.84688 303.73126Q68.58125 303.73126 69.06563 303.02814Q69.56563 302.325 69.56563 300.21564Q69.56563 298.09064 69.06563 297.40314Q68.58125 296.7 67.83125 296.7Q67.1125 296.7 66.675 297.3094Q66.12813 298.09064 66.12813 300.21564Z" fill-rule="nonzero"/><path fill="#000000" d="M63.596874 232.71216L63.596874 233.72778L57.909374 233.72778Q57.909374 233.35278 58.034374 232.99341Q58.253124 232.41528 58.721874 231.85278Q59.20625 231.29028 60.1125 230.55591Q61.51875 229.39966 62.003124 228.72778Q62.503124 228.05591 62.503124 227.46216Q62.503124 226.83716 62.05 226.41528Q61.596874 225.97778 60.878124 225.97778Q60.1125 225.97778 59.659374 226.43091Q59.20625 226.88403 59.190624 227.69653L58.1125 227.58716Q58.221874 226.36841 58.940624 225.74341Q59.675 225.10278 60.909374 225.10278Q62.14375 225.10278 62.8625 225.79028Q63.58125 226.47778 63.58125 227.49341Q63.58125 228.00903 63.3625 228.50903Q63.159374 228.99341 62.659374 229.55591Q62.175 230.10278 61.05 231.05591Q60.096874 231.85278 59.815624 232.14966Q59.55 232.43091 59.378124 232.71216L63.596874 232.71216ZM65.05 229.49341Q65.05 227.96216 65.3625 227.04028Q65.675 226.10278 66.28438 225.60278Q66.90938 225.10278 67.84688 225.10278Q68.53438 225.10278 69.05 225.38403Q69.58125 225.66528 69.925 226.19653Q70.26875 226.71216 70.45625 227.46216Q70.64375 228.21216 70.64375 229.49341Q70.64375 231.00903 70.33125 231.93091Q70.03438 232.85278 69.40938 233.36841Q68.8 233.86841 67.84688 233.86841Q66.6125 233.86841 65.89375 232.97778Q65.05 231.91528 65.05 229.49341ZM66.12813 229.49341Q66.12813 231.60278 66.62813 232.30591Q67.12813 233.00903 67.84688 233.00903Q68.58125 233.00903 69.06563 232.30591Q69.56563 231.60278 69.56563 229.49341Q69.56563 227.36841 69.06563 226.68091Q68.58125 225.97778 67.83125 225.97778Q67.1125 225.97778 66.675 226.58716Q66.12813 227.36841 66.12813 229.49341Z" fill-rule="nonzero"/><path fill="#000000" d="M61.425 163.00555L61.425 160.94305L57.70625 160.94305L57.70625 159.9743L61.628124 154.4118L62.4875 154.4118L62.4875 159.9743L63.64375 159.9743L63.64375 160.94305L62.4875 160.94305L62.4875 163.00555L61.425 163.00555ZM61.425 159.9743L61.425 156.11493L58.7375 159.9743L61.425 159.9743ZM65.05 158.77118Q65.05 157.23993 65.3625 156.31805Q65.675 155.38055 66.28438 154.88055Q66.90938 154.38055 67.84688 154.38055Q68.53438 154.38055 69.05 154.6618Q69.58125 154.94305 69.925 155.4743Q70.26875 155.98993 70.45625 156.73993Q70.64375 157.48993 70.64375 158.77118Q70.64375 160.2868 70.33125 161.20868Q70.03438 162.13055 69.40938 162.64618Q68.8 163.14618 67.84688 163.14618Q66.6125 163.14618 65.89375 162.25555Q65.05 161.19305 65.05 158.77118ZM66.12813 158.77118Q66.12813 160.88055 66.62813 161.58368Q67.12813 162.2868 67.84688 162.2868Q68.58125 162.2868 69.06563 161.58368Q69.56563 160.88055 69.56563 158.77118Q69.56563 156.64618 69.06563 155.95868Q68.58125 155.25555 67.83125 155.25555Q67.1125 155.25555 66.675 155.86493Q66.12813 156.64618 66.12813 158.77118Z" fill-rule="nonzero"/><path fill="#000000" d="M63.51875 85.79896L62.471874 85.87708Q62.33125 85.25208 62.08125 84.97083Q61.64375 84.51771 61.01875 84.51771Q60.51875 84.51771 60.128124 84.79896Q59.64375 85.17396 59.346874 85.87708Q59.065624 86.56458 59.05 87.84583Q59.425 87.26771 59.971874 86.98646Q60.534374 86.70521 61.14375 86.70521Q62.190624 86.70521 62.925 87.48646Q63.675 88.26771 63.675 89.48646Q63.675 90.29896 63.315624 91.00208Q62.971874 91.68958 62.3625 92.06458Q61.753124 92.42396 60.9875 92.42396Q59.659374 92.42396 58.83125 91.45521Q58.003124 90.48646 58.003124 88.26771Q58.003124 85.76771 58.925 84.64271Q59.721874 83.65833 61.08125 83.65833Q62.096874 83.65833 62.7375 84.23646Q63.39375 84.79896 63.51875 85.79896ZM59.221874 89.50208Q59.221874 90.04896 59.440624 90.54896Q59.675 91.03333 60.08125 91.29896Q60.503124 91.56458 60.971874 91.56458Q61.628124 91.56458 62.1125 91.03333Q62.596874 90.48646 62.596874 89.56458Q62.596874 88.67396 62.1125 88.15833Q61.64375 87.64271 60.925 87.64271Q60.20625 87.64271 59.70625 88.15833Q59.221874 88.67396 59.221874 89.50208ZM65.05 88.04896Q65.05 86.51771 65.3625 85.59583Q65.675 84.65833 66.28438 84.15833Q66.90938 83.65833 67.84688 83.65833Q68.53438 83.65833 69.05 83.93958Q69.58125 84.22083 69.925 84.75208Q70.26875 85.26771 70.45625 86.01771Q70.64375 86.76771 70.64375 88.04896Q70.64375 89.56458 70.33125 90.48646Q70.03438 91.40833 69.40938 91.92396Q68.8 92.42396 67.84688 92.42396Q66.6125 92.42396 65.89375 91.53333Q65.05 90.47083 65.05 88.04896ZM66.12813 88.04896Q66.12813 90.15833 66.62813 90.86146Q67.12813 91.56458 67.84688 91.56458Q68.58125 91.56458 69.06563 90.86146Q69.56563 90.15833 69.56563 88.04896Q69.56563 85.92396 69.06563 85.23646Q68.58125 84.53333 67.83125 84.53333Q67.1125 84.53333 66.675 85.14271Q66.12813 85.92396 66.12813 88.04896Z" fill-rule="nonzero"/><path fill="#000000" d="M78.51875 317.45L77.47188 317.45L77.47188 310.73126Q77.08125 311.09064 76.45625 311.46564Q75.84688 311.825 75.3625 311.9969L75.3625 310.98126Q76.2375 310.5594 76.89375 309.98126Q77.56563 309.3875 77.84688 308.825L78.51875 308.825L78.51875 317.45Z" fill-rule="nonzero"/><path fill="#000000" d="M210.28162 317.45L209.23474 317.45L209.23474 310.73126Q208.84412 311.09064 208.21912 311.46564Q207.60974 311.825 207.12537 311.9969L207.12537 310.98126Q208.00037 310.5594 208.65662 309.98126Q209.32849 309.3875 209.60974 308.825L210.28162 308.825L210.28162 317.45ZM213.31287 313.21564Q213.31287 311.6844 213.62537 310.7625Q213.93787 309.825 214.54724 309.325Q215.17224 308.825 216.10974 308.825Q216.79724 308.825 217.31287 309.10626Q217.84412 309.3875 218.18787 309.91876Q218.53162 310.4344 218.71912 311.1844Q218.90662 311.9344 218.90662 313.21564Q218.90662 314.73126 218.59412 315.65314Q218.29724 316.575 217.67224 317.09064Q217.06287 317.59064 216.10974 317.59064Q214.87537 317.59064 214.15662 316.7Q213.31287 315.6375 213.31287 313.21564ZM214.39099 313.21564Q214.39099 315.325 214.89099 316.02814Q215.39099 316.73126 216.10974 316.73126Q216.84412 316.73126 217.32849 316.02814Q217.82849 315.325 217.82849 313.21564Q217.82849 311.09064 217.32849 310.40314Q216.84412 309.7 216.09412 309.7Q215.37537 309.7 214.93787 310.3094Q214.39099 311.09064 214.39099 313.21564Z" fill-rule="nonzero"/><path fill="#000000" d="M342.0445 317.45L340.99762 317.45L340.99762 310.73126Q340.607 311.09064 339.982 311.46564Q339.37262 311.825 338.88824 311.9969L338.88824 310.98126Q339.76324 310.5594 340.4195 309.98126Q341.09137 309.3875 341.37262 308.825L342.0445 308.825L342.0445 317.45ZM345.07574 313.21564Q345.07574 311.6844 345.38824 310.7625Q345.70074 309.825 346.31012 309.325Q346.93512 308.825 347.87262 308.825Q348.56012 308.825 349.07574 309.10626Q349.607 309.3875 349.95074 309.91876Q350.2945 310.4344 350.482 311.1844Q350.6695 311.9344 350.6695 313.21564Q350.6695 314.73126 350.357 315.65314Q350.06012 316.575 349.43512 317.09064Q348.82574 317.59064 347.87262 317.59064Q346.63824 317.59064 345.9195 316.7Q345.07574 315.6375 345.07574 313.21564ZM346.15387 313.21564Q346.15387 315.325 346.65387 316.02814Q347.15387 316.73126 347.87262 316.73126Q348.607 316.73126 349.09137 316.02814Q349.59137 315.325 349.59137 313.21564Q349.59137 311.09064 349.09137 310.40314Q348.607 309.7 347.857 309.7Q347.13824 309.7 346.70074 310.3094Q346.15387 311.09064 346.15387 313.21564ZM352.07574 313.21564Q352.07574 311.6844 352.38824 310.7625Q352.70074 309.825 353.31012 309.325Q353.93512 308.825 354.87262 308.825Q355.56012 308.825 356.07574 309.10626Q356.607 309.3875 356.95074 309.91876Q357.2945 310.4344 357.482 311.1844Q357.6695 311.9344 357.6695 313.21564Q357.6695 314.73126 357.357 315.65314Q357.06012 316.575 356.43512 317.09064Q355.82574 317.59064 354.87262 317.59064Q353.63824 317.59064 352.9195 316.7Q352.07574 315.6375 352.07574 313.21564ZM353.15387 313.21564Q353.15387 315.325 353.65387 316.02814Q354.15387 316.73126 354.87262 316.73126Q355.607 316.73126 356.09137 316.02814Q356.59137 315.325 356.59137 313.21564Q356.59137 311.09064 356.09137 310.40314Q355.607 309.7 354.857 309.7Q354.13824 309.7 353.70074 310.3094Q353.15387 311.09064 353.15387 313.21564Z" fill-rule="nonzero"/><path fill="#000000" d="M473.80737 317.45L472.7605 317.45L472.7605 310.73126Q472.36987 311.09064 471.74487 311.46564Q471.1355 311.825 470.65112 311.9969L470.65112 310.98126Q471.52612 310.5594 472.18237 309.98126Q472.85425 309.3875 473.1355 308.825L473.80737 308.825L473.80737 317.45ZM476.83862 313.21564Q476.83862 311.6844 477.15112 310.7625Q477.46362 309.825 478.073 309.325Q478.698 308.825 479.6355 308.825Q480.323 308.825 480.83862 309.10626Q481.36987 309.3875 481.71362 309.91876Q482.05737 310.4344 482.24487 311.1844Q482.43237 311.9344 482.43237 313.21564Q482.43237 314.73126 482.11987 315.65314Q481.823 316.575 481.198 317.09064Q480.58862 317.59064 479.6355 317.59064Q478.40112 317.59064 477.68237 316.7Q476.83862 315.6375 476.83862 313.21564ZM477.91675 313.21564Q477.91675 315.325 478.41675 316.02814Q478.91675 316.73126 479.6355 316.73126Q480.36987 316.73126 480.85425 316.02814Q481.35425 315.325 481.35425 313.21564Q481.35425 311.09064 480.85425 310.40314Q480.36987 309.7 479.61987 309.7Q478.90112 309.7 478.46362 310.3094Q477.91675 311.09064 477.91675 313.21564ZM483.83862 313.21564Q483.83862 311.6844 484.15112 310.7625Q484.46362 309.825 485.073 309.325Q485.698 308.825 486.6355 308.825Q487.323 308.825 487.83862 309.10626Q488.36987 309.3875 488.71362 309.91876Q489.05737 310.4344 489.24487 311.1844Q489.43237 311.9344 489.43237 313.21564Q489.43237 314.73126 489.11987 315.65314Q488.823 316.575 488.198 317.09064Q487.58862 317.59064 486.6355 317.59064Q485.40112 317.59064 484.68237 316.7Q483.83862 315.6375 483.83862 313.21564ZM484.91675 313.21564Q484.91675 315.325 485.41675 316.02814Q485.91675 316.73126 486.6355 316.73126Q487.36987 316.73126 487.85425 316.02814Q488.35425 315.325 488.35425 313.21564Q488.35425 311.09064 487.85425 310.40314Q487.36987 309.7 486.61987 309.7Q485.90112 309.7 485.46362 310.3094Q484.91675 311.09064 484.91675 313.21564ZM490.83862 313.21564Q490.83862 311.6844 491.15112 310.7625Q491.46362 309.825 492.073 309.325Q492.698 308.825 493.6355 308.825Q494.323 308.825 494.83862 309.10626Q495.36987 309.3875 495.71362 309.91876Q496.05737 310.4344 496.24487 311.1844Q496.43237 311.9344 496.43237 313.21564Q496.43237 314.73126 496.11987 315.65314Q495.823 316.575 495.198 317.09064Q494.58862 317.59064 493.6355 317.59064Q492.40112 317.59064 491.68237 316.7Q490.83862 315.6375 490.83862 313.21564ZM491.91675 313.21564Q491.91675 315.325 492.41675 316.02814Q492.91675 316.73126 493.6355 316.73126Q494.36987 316.73126 494.85425 316.02814Q495.35425 315.325 495.35425 313.21564Q495.35425 311.09064 494.85425 310.40314Q494.36987 309.7 493.61987 309.7Q492.90112 309.7 492.46362 310.3094Q491.91675 311.09064 491.91675 313.21564Z" fill-rule="nonzero"/><path stroke="#ea4335" stroke-width="4.0" stroke-linecap="butt" d="M226.5 61.916668L238.5 61.916668" fill-rule="nonzero"/><path fill="#1a1a1a" d="M251.32812 65.916664L251.32812 65.135414Q250.73438 66.05729 249.59375 66.05729Q248.84375 66.05729 248.21875 65.65104Q247.59375 65.229164 247.25 64.49479Q246.90625 63.760414 246.90625 62.80729Q246.90625 61.885414 247.21875 61.11979Q247.53125 60.354164 248.15625 59.96354Q248.78125 59.55729 249.54688 59.55729Q250.10938 59.55729 250.54688 59.791664Q250.98438 60.02604 251.26562 60.40104L251.26562 57.322914L252.3125 57.322914L252.3125 65.916664L251.32812 65.916664ZM248.0 62.80729Q248.0 64.010414 248.5 64.604164Q249.0 65.18229 249.6875 65.18229Q250.375 65.18229 250.85938 64.61979Q251.34375 64.05729 251.34375 62.90104Q251.34375 61.61979 250.84375 61.02604Q250.35938 60.43229 249.64062 60.43229Q248.9375 60.43229 248.46875 61.010414Q248.0 61.572914 248.0 62.80729ZM258.54688 63.916664L259.64062 64.041664Q259.39062 64.99479 258.6875 65.52604Q257.98438 66.05729 256.90625 66.05729Q255.54688 66.05729 254.73438 65.21354Q253.9375 64.36979 253.9375 62.854164Q253.9375 61.291664 254.75 60.43229Q255.5625 59.55729 256.84375 59.55729Q258.09375 59.55729 258.875 60.40104Q259.67188 61.24479 259.67188 62.791664Q259.67188 62.885414 259.67188 63.072914L255.03125 63.072914Q255.09375 64.104164 255.60938 64.65104Q256.125 65.18229 256.90625 65.18229Q257.48438 65.18229 257.89062 64.885414Q258.3125 64.572914 258.54688 63.916664ZM255.09375 62.21354L258.5625 62.21354Q258.5 61.416664 258.17188 61.02604Q257.65625 60.416664 256.85938 60.416664Q256.125 60.416664 255.625 60.90104Q255.14062 61.385414 255.09375 62.21354ZM263.01562 65.916664L260.65625 59.697914L261.76562 59.697914L263.10938 63.416664Q263.3125 64.02604 263.5 64.666664Q263.64062 64.18229 263.89062 63.49479L265.28125 59.697914L266.35938 59.697914L264.0 65.916664L263.01562 65.916664ZM270.54688 63.916664L271.64062 64.041664Q271.39062 64.99479 270.6875 65.52604Q269.98438 66.05729 268.90625 66.05729Q267.54688 66.05729 266.73438 65.21354Q265.9375 64.36979 265.9375 62.854164Q265.9375 61.291664 266.75 60.43229Q267.5625 59.55729 268.84375 59.55729Q270.09375 59.55729 270.875 60.40104Q271.67188 61.24479 271.67188 62.791664Q271.67188 62.885414 271.67188 63.072914L267.03125 63.072914Q267.09375 64.104164 267.60938 64.65104Q268.125 65.18229 268.90625 65.18229Q269.48438 65.18229 269.89062 64.885414Q270.3125 64.572914 270.54688 63.916664ZM267.09375 62.21354L270.5625 62.21354Q270.5 61.416664 270.17188 61.02604Q269.65625 60.416664 268.85938 60.416664Q268.125 60.416664 267.625 60.90104Q267.14062 61.385414 267.09375 62.21354ZM273.26562 65.916664L273.26562 57.322914L274.32812 57.322914L274.32812 65.916664L273.26562 65.916664ZM275.90625 62.80729Q275.90625 61.072914 276.85938 60.24479Q277.65625 59.55729 278.8125 59.55729Q280.09375 59.55729 280.90625 60.40104Q281.73438 61.229164 281.73438 62.71354Q281.73438 63.916664 281.375 64.604164Q281.01562 65.291664 280.3125 65.68229Q279.625 66.05729 278.8125 66.05729Q277.51562 66.05729 276.70312 65.229164Q275.90625 64.385414 275.90625 62.80729ZM276.98438 62.80729Q276.98438 63.99479 277.5 64.58854Q278.03125 65.18229 278.8125 65.18229Q279.60938 65.18229 280.125 64.58854Q280.64062 63.99479 280.64062 62.77604Q280.64062 61.61979 280.10938 61.02604Q279.59375 60.43229 278.8125 60.43229Q278.03125 60.43229 277.5 61.02604Q276.98438 61.604164 276.98438 62.80729ZM283.29688 68.30729L283.29688 59.697914L284.25 59.697914L284.25 60.49479Q284.59375 60.02604 285.01562 59.791664Q285.45312 59.55729 286.0625 59.55729Q286.85938 59.55729 287.46875 59.96354Q288.07812 60.36979 288.375 61.11979Q288.6875 61.86979 288.6875 62.760414Q288.6875 63.71354 288.34375 64.479164Q288.01562 65.24479 287.35938 65.65104Q286.70312 66.05729 285.98438 66.05729Q285.45312 66.05729 285.03125 65.83854Q284.60938 65.604164 284.34375 65.27604L284.34375 68.30729L283.29688 68.30729ZM284.25 62.83854Q284.25 64.041664 284.73438 64.61979Q285.21875 65.18229 285.90625 65.18229Q286.60938 65.18229 287.10938 64.58854Q287.60938 63.99479 287.60938 62.74479Q287.60938 61.55729 287.125 60.979164Q286.64062 60.385414 285.95312 60.385414Q285.28125 60.385414 284.76562 61.010414Q284.25 61.635414 284.25 62.83854ZM290.29688 65.916664L290.29688 59.697914L291.23438 59.697914L291.23438 60.572914Q291.53125 60.104164 292.01562 59.83854Q292.5 59.55729 293.125 59.55729Q293.8125 59.55729 294.25 59.83854Q294.70312 60.11979 294.875 60.635414Q295.625 59.55729 296.79688 59.55729Q297.73438 59.55729 298.21875 60.072914Q298.71875 60.572914 298.71875 61.65104L298.71875 65.916664L297.67188 65.916664L297.67188 61.99479Q297.67188 61.36979 297.5625 61.08854Q297.46875 60.80729 297.20312 60.635414Q296.9375 60.46354 296.5625 60.46354Q295.90625 60.46354 295.46875 60.90104Q295.04688 61.33854 295.04688 62.30729L295.04688 65.916664L293.98438 65.916664L293.98438 61.86979Q293.98438 61.166664 293.71875 60.822914Q293.46875 60.46354 292.89062 60.46354Q292.4375 60.46354 292.0625 60.697914Q291.6875 60.93229 291.51562 61.385414Q291.34375 61.83854 291.34375 62.68229L291.34375 65.916664L290.29688 65.916664ZM305.54688 63.916664L306.64062 64.041664Q306.39062 64.99479 305.6875 65.52604Q304.98438 66.05729 303.90625 66.05729Q302.54688 66.05729 301.73438 65.21354Q300.9375 64.36979 300.9375 62.854164Q300.9375 61.291664 301.75 60.43229Q302.5625 59.55729 303.84375 59.55729Q305.09375 59.55729 305.875 60.40104Q306.67188 61.24479 306.67188 62.791664Q306.67188 62.885414 306.67188 63.072914L302.03125 63.072914Q302.09375 64.104164 302.60938 64.65104Q303.125 65.18229 303.90625 65.18229Q304.48438 65.18229 304.89062 64.885414Q305.3125 64.572914 305.54688 63.916664ZM302.09375 62.21354L305.5625 62.21354Q305.5 61.416664 305.17188 61.02604Q304.65625 60.416664 303.85938 60.416664Q303.125 60.416664 302.625 60.90104Q302.14062 61.385414 302.09375 62.21354ZM308.29688 65.916664L308.29688 59.697914L309.23438 59.697914L309.23438 60.572914Q309.92188 59.55729 311.21875 59.55729Q311.78125 59.55729 312.25 59.760414Q312.73438 59.96354 312.96875 60.291664Q313.20312 60.61979 313.29688 61.05729Q313.34375 61.354164 313.34375 62.08854L313.34375 65.916664L312.29688 65.916664L312.29688 62.135414Q312.29688 61.479164 312.17188 61.166664Q312.04688 60.854164 311.73438 60.666664Q311.42188 60.46354 311.0 60.46354Q310.32812 60.46354 309.82812 60.90104Q309.34375 61.322914 309.34375 62.510414L309.34375 65.916664L308.29688 65.916664ZM317.59375 64.979164L317.75 65.90104Q317.29688 65.99479 316.95312 65.99479Q316.375 65.99479 316.0625 65.822914Q315.75 65.635414 315.60938 65.33854Q315.48438 65.041664 315.48438 64.08854L315.48438 60.510414L314.71875 60.510414L314.71875 59.697914L315.48438 59.697914L315.48438 58.15104L316.53125 57.52604L316.53125 59.697914L317.59375 59.697914L317.59375 60.510414L316.53125 60.510414L316.53125 64.15104Q316.53125 64.604164 316.57812 64.729164Q316.64062 64.854164 316.76562 64.93229Q316.89062 65.010414 317.125 65.010414Q317.3125 65.010414 317.59375 64.979164Z" fill-rule="nonzero"/><path fill="#757575" d="M139.8125 37.55L139.8125 27.175L141.39062 27.175L141.39062 28.628124Q141.875 27.878124 142.6875 27.409374Q143.5 26.940624 144.53125 26.940624Q145.6875 26.940624 146.42188 27.425Q147.15625 27.89375 147.46875 28.753124Q148.70312 26.940624 150.67188 26.940624Q152.21875 26.940624 153.04688 27.8Q153.875 28.659374 153.875 30.425L153.875 37.55L152.125 37.55L152.125 31.01875Q152.125 29.95625 151.95312 29.503124Q151.78125 29.034374 151.32812 28.753124Q150.89062 28.471874 150.28125 28.471874Q149.1875 28.471874 148.45312 29.20625Q147.73438 29.925 147.73438 31.51875L147.73438 37.55L145.98438 37.55L145.98438 30.815624Q145.98438 29.64375 145.54688 29.065624Q145.125 28.471874 144.14062 28.471874Q143.40625 28.471874 142.76562 28.8625Q142.14062 29.253124 141.85938 30.003124Q141.57812 30.753124 141.57812 32.175L141.57812 37.55L139.8125 37.55ZM162.92188 34.20625L164.73438 34.440624Q164.3125 36.01875 163.14062 36.909374Q161.98438 37.784374 160.17188 37.784374Q157.90625 37.784374 156.5625 36.39375Q155.23438 34.9875 155.23438 32.45625Q155.23438 29.83125 156.57812 28.39375Q157.92188 26.940624 160.07812 26.940624Q162.15625 26.940624 163.46875 28.3625Q164.79688 29.76875 164.79688 32.346874Q164.79688 32.503124 164.78125 32.815624L157.04688 32.815624Q157.14062 34.51875 158.01562 35.425Q158.89062 36.33125 160.1875 36.33125Q161.15625 36.33125 161.82812 35.83125Q162.51562 35.315624 162.92188 34.20625ZM157.14062 31.3625L162.9375 31.3625Q162.82812 30.065624 162.28125 29.409374Q161.4375 28.39375 160.09375 28.39375Q158.89062 28.39375 158.0625 29.20625Q157.23438 30.003124 157.14062 31.3625ZM166.8125 37.55L166.8125 27.175L168.39062 27.175L168.39062 28.628124Q168.875 27.878124 169.6875 27.409374Q170.5 26.940624 171.53125 26.940624Q172.6875 26.940624 173.42188 27.425Q174.15625 27.89375 174.46875 28.753124Q175.70312 26.940624 177.67188 26.940624Q179.21875 26.940624 180.04688 27.8Q180.875 28.659374 180.875 30.425L180.875 37.55L179.125 37.55L179.125 31.01875Q179.125 29.95625 178.95312 29.503124Q178.78125 29.034374 178.32812 28.753124Q177.89062 28.471874 177.28125 28.471874Q176.1875 28.471874 175.45312 29.20625Q174.73438 29.925 174.73438 31.51875L174.73438 37.55L172.98438 37.55L172.98438 30.815624Q172.98438 29.64375 172.54688 29.065624Q172.125 28.471874 171.14062 28.471874Q170.40625 28.471874 169.76562 28.8625Q169.14062 29.253124 168.85938 30.003124Q168.57812 30.753124 168.57812 32.175L168.57812 37.55L166.8125 37.55ZM189.59375 33.753124L191.3125 33.971874Q191.03125 35.76875 189.85938 36.784374Q188.70312 37.784374 187.0 37.784374Q184.875 37.784374 183.57812 36.39375Q182.28125 35.003124 182.28125 32.409374Q182.28125 30.721874 182.82812 29.471874Q183.39062 28.20625 184.53125 27.58125Q185.67188 26.940624 187.01562 26.940624Q188.70312 26.940624 189.76562 27.8Q190.84375 28.659374 191.15625 30.221874L189.4375 30.4875Q189.20312 29.440624 188.57812 28.925Q187.95312 28.39375 187.07812 28.39375Q185.75 28.39375 184.92188 29.346874Q184.09375 30.3 184.09375 32.346874Q184.09375 34.440624 184.89062 35.39375Q185.6875 36.33125 186.98438 36.33125Q188.01562 36.33125 188.70312 35.70625Q189.40625 35.065624 189.59375 33.753124ZM192.8125 41.51875L192.8125 27.175L194.42188 27.175L194.42188 28.51875Q194.98438 27.7375 195.6875 27.346874Q196.40625 26.940624 197.42188 26.940624Q198.75 26.940624 199.76562 27.628124Q200.78125 28.315624 201.29688 29.565624Q201.82812 30.8 201.82812 32.284374Q201.82812 33.878124 201.25 35.159374Q200.6875 36.425 199.59375 37.1125Q198.5 37.784374 197.29688 37.784374Q196.42188 37.784374 195.71875 37.409374Q195.03125 37.034374 194.57812 36.471874L194.57812 41.51875L192.8125 41.51875ZM194.40625 32.425Q194.40625 34.425 195.21875 35.378124Q196.03125 36.33125 197.1875 36.33125Q198.35938 36.33125 199.1875 35.346874Q200.03125 34.3625 200.03125 32.26875Q200.03125 30.3 199.20312 29.315624Q198.39062 28.315624 197.26562 28.315624Q196.14062 28.315624 195.26562 29.378124Q194.40625 30.425 194.40625 32.425ZM203.73438 41.55L203.54688 39.89375Q204.125 40.05 204.54688 40.05Q205.14062 40.05 205.48438 39.846874Q205.84375 39.659374 206.0625 39.315624Q206.23438 39.05 206.60938 38.003124Q206.65625 37.846874 206.76562 37.565624L202.82812 27.175L204.71875 27.175L206.875 33.190624Q207.29688 34.33125 207.625 35.58125Q207.9375 34.378124 208.34375 33.221874L210.5625 27.175L212.32812 27.175L208.375 37.721874Q207.75 39.440624 207.39062 40.08125Q206.92188 40.95625 206.3125 41.346874Q205.71875 41.753124 204.875 41.753124Q204.35938 41.753124 203.73438 41.55ZM224.14062 37.55L218.59375 23.2375L220.64062 23.2375L224.35938 33.628124Q224.8125 34.878124 225.10938 35.971874Q225.4375 34.8 225.89062 33.628124L229.75 23.2375L231.6875 23.2375L226.07812 37.55L224.14062 37.55ZM232.96875 37.55L232.96875 23.2375L234.85938 23.2375L234.85938 35.8625L241.90625 35.8625L241.90625 37.55L232.96875 37.55ZM244.07812 37.55L244.07812 23.2375L254.4375 23.2375L254.4375 24.925L245.98438 24.925L245.98438 29.3L253.89062 29.3L253.89062 30.9875L245.98438 30.9875L245.98438 35.8625L254.76562 35.8625L254.76562 37.55L244.07812 37.55ZM257.03125 37.55L257.03125 23.2375L258.96875 23.2375L266.48438 34.471874L266.48438 23.2375L268.29688 23.2375L268.29688 37.55L266.35938 37.55L258.84375 26.3L258.84375 37.55L257.03125 37.55ZM279.0625 29.128124L269.60938 29.128124L269.60938 27.4875L279.0625 27.4875L279.0625 29.128124ZM279.0625 33.471874L269.60938 33.471874L269.60938 31.83125L279.0625 31.83125L279.0625 33.471874ZM287.95312 37.55L286.1875 37.55L286.1875 26.346874Q285.5625 26.95625 284.53125 27.565624Q283.5 28.159374 282.67188 28.471874L282.67188 26.76875Q284.15625 26.08125 285.25 25.096874Q286.35938 24.096874 286.8125 23.175L287.95312 23.175L287.95312 37.55ZM292.32812 30.4875Q292.32812 27.95625 292.84375 26.409374Q293.375 24.846874 294.40625 24.01875Q295.4375 23.175 297.0 23.175Q298.15625 23.175 299.01562 23.64375Q299.89062 24.096874 300.45312 24.971874Q301.01562 25.846874 301.34375 27.1125Q301.67188 28.3625 301.67188 30.4875Q301.67188 33.003124 301.14062 34.55Q300.625 36.096874 299.59375 36.95625Q298.57812 37.8 297.0 37.8Q294.92188 37.8 293.75 36.315624Q292.32812 34.51875 292.32812 30.4875ZM294.14062 30.4875Q294.14062 34.01875 294.95312 35.190624Q295.78125 36.346874 297.0 36.346874Q298.20312 36.346874 299.03125 35.175Q299.85938 34.003124 299.85938 30.4875Q299.85938 26.95625 299.03125 25.8Q298.20312 24.628124 296.98438 24.628124Q295.76562 24.628124 295.04688 25.659374Q294.14062 26.95625 294.14062 30.4875ZM312.5625 35.8625L312.5625 37.55L303.10938 37.55Q303.09375 36.909374 303.3125 36.33125Q303.67188 35.3625 304.46875 34.425Q305.26562 33.4875 306.76562 32.253124Q309.10938 30.346874 309.92188 29.2375Q310.75 28.1125 310.75 27.1125Q310.75 26.065624 310.0 25.346874Q309.25 24.628124 308.04688 24.628124Q306.78125 24.628124 306.01562 25.39375Q305.25 26.159374 305.25 27.503124L303.4375 27.315624Q303.625 25.3 304.82812 24.2375Q306.04688 23.175 308.09375 23.175Q310.14062 23.175 311.34375 24.315624Q312.54688 25.45625 312.54688 27.14375Q312.54688 28.003124 312.1875 28.846874Q311.84375 29.675 311.03125 30.596874Q310.21875 31.503124 308.32812 33.1125Q306.73438 34.440624 306.28125 34.909374Q305.84375 35.378124 305.54688 35.8625L312.5625 35.8625ZM319.96875 37.55L319.96875 34.128124L313.75 34.128124L313.75 32.503124L320.28125 23.2375L321.71875 23.2375L321.71875 32.503124L323.65625 32.503124L323.65625 34.128124L321.71875 34.128124L321.71875 37.55L319.96875 37.55ZM319.96875 32.503124L319.96875 26.05L315.48438 32.503124L319.96875 32.503124ZM331.96875 37.55L331.96875 23.2375L333.85938 23.2375L333.85938 35.8625L340.90625 35.8625L340.90625 37.55L331.96875 37.55ZM342.98438 37.55L342.98438 23.2375L345.84375 23.2375L349.21875 33.3625Q349.6875 34.784374 349.90625 35.4875Q350.15625 34.70625 350.67188 33.190624L354.09375 23.2375L356.64062 23.2375L356.64062 37.55L354.82812 37.55L354.82812 25.565624L350.65625 37.55L348.95312 37.55L344.8125 25.3625L344.8125 37.55L342.98438 37.55ZM369.4375 23.2375L371.32812 23.2375L371.32812 31.503124Q371.32812 33.659374 370.84375 34.940624Q370.35938 36.20625 369.07812 37.003124Q367.8125 37.8 365.73438 37.8Q363.71875 37.8 362.4375 37.1125Q361.17188 36.409374 360.625 35.096874Q360.07812 33.784374 360.07812 31.503124L360.07812 23.2375L361.96875 23.2375L361.96875 31.4875Q361.96875 33.3625 362.3125 34.253124Q362.65625 35.128124 363.5 35.6125Q364.34375 36.08125 365.57812 36.08125Q367.65625 36.08125 368.54688 35.14375Q369.4375 34.190624 369.4375 31.4875L369.4375 23.2375ZM372.96875 37.55L372.96875 23.2375L374.85938 23.2375L374.85938 35.8625L381.90625 35.8625L381.90625 37.55L372.96875 37.55ZM393.0625 29.128124L383.60938 29.128124L383.60938 27.4875L393.0625 27.4875L393.0625 29.128124ZM393.0625 33.471874L383.60938 33.471874L383.60938 31.83125L393.0625 31.83125L393.0625 33.471874ZM398.03125 29.784374Q396.9375 29.378124 396.40625 28.64375Q395.89062 27.89375 395.89062 26.8625Q395.89062 25.3 397.01562 24.2375Q398.14062 23.175 400.0 23.175Q401.875 23.175 403.01562 24.26875Q404.15625 25.346874 404.15625 26.909374Q404.15625 27.909374 403.625 28.64375Q403.10938 29.378124 402.04688 29.784374Q403.375 30.221874 404.0625 31.175Q404.75 32.128124 404.75 33.45625Q404.75 35.3 403.4375 36.55Q402.14062 37.8 400.03125 37.8Q397.90625 37.8 396.60938 36.55Q395.3125 35.284374 395.3125 33.409374Q395.3125 32.01875 396.01562 31.08125Q396.73438 30.128124 398.03125 29.784374ZM397.6875 26.8Q397.6875 27.815624 398.34375 28.471874Q399.0 29.1125 400.03125 29.1125Q401.04688 29.1125 401.70312 28.471874Q402.35938 27.83125 402.35938 26.909374Q402.35938 25.940624 401.6875 25.284374Q401.01562 24.6125 400.01562 24.6125Q399.01562 24.6125 398.34375 25.26875Q397.6875 25.909374 397.6875 26.8ZM397.125 33.425Q397.125 34.175 397.46875 34.878124Q397.82812 35.58125 398.53125 35.971874Q399.23438 36.346874 400.04688 36.346874Q401.3125 36.346874 402.125 35.534374Q402.95312 34.721874 402.95312 33.471874Q402.95312 32.20625 402.10938 31.378124Q401.26562 30.55 399.98438 30.55Q398.75 30.55 397.9375 31.378124Q397.125 32.190624 397.125 33.425Z" fill-rule="nonzero"/></svg>