<svg version="1.1" viewBox="0.0 0.0 544.0 371.0" fill="none" stroke="none" stroke-linecap="square" stroke-miterlimit="10" width="544" height="371" xmlns:xlink="http://www.w3.org/1999/xlink" xmlns="http://www.w3.org/2000/svg"><path fill="#ffffff" d="M0 0L544.0 0L544.0 371.0L0 371.0L0 0Z" fill-rule="nonzero"/><path stroke="#cccccc" stroke-width="1.0" stroke-linecap="butt" d="M77.5 88.5L77.5 300.5" fill-rule="nonzero"/><path stroke="#cccccc" stroke-width="1.0" stroke-linecap="butt" d="M212.5 88.5L212.5 300.5" fill-rule="nonzero"/><path stroke="#cccccc" stroke-width="1.0" stroke-linecap="butt" d="M348.5 88.5L348.5 300.5" fill-rule="nonzero"/><path stroke="#cccccc" stroke-width="1.0" stroke-linecap="butt" d="M483.5 88.5L483.5 300.5" fill-rule="nonzero"/><path stroke="#333333" stroke-width="1.0" stroke-linecap="butt" d="M77.5 300.5L525.5 300.5" fill-rule="nonzero"/><path stroke="#cccccc" stroke-width="1.0" stroke-linecap="butt" d="M77.5 258.5L525.5 258.5" fill-rule="nonzero"/><path stroke="#cccccc" stroke-width="1.0" stroke-linecap="butt" d="M77.5 215.5L525.5 215.5" fill-rule="nonzero"/><path stroke="#cccccc" stroke-width="1.0" stroke-linecap="butt" d="M77.5 173.5L525.5 173.5" fill-rule="nonzero"/><path stroke="#cccccc" stroke-width="1.0" stroke-linecap="butt" d="M77.5 130.5L525.5 130.5" fill-rule="nonzero"/><path stroke="#cccccc" stroke-width="1.0" stroke-linecap="butt" d="M77.5 88.5L525.5 88.5" fill-rule="nonzero"/><clipPath id="id_0"><path d="M77.55 88.28333L525.45 88.28333L525.45 300.45L77.55 300.45L77.55 88.28333Z" clip-rule="nonzero"/></clipPath><path stroke="#ea4335" stroke-width="2.0" stroke-linecap="butt" clip-path="url(#id_0)" d="M77.55 268.625L118.26818 263.30823L158.98636 228.2488L199.70454 181.53986L240.42273 167.10454L281.1409 132.63455L321.8591 140.86377L362.57727 137.42691L403.29544 121.69386L444.01364 120.10046L484.7318 118.73003L525.45 118.250725" fill-rule="nonzero"/><path fill="#000000" fill-opacity="0.0" clip-path="url(#id_0)" d="M80.55 268.625C80.55 270.28186 79.206856 271.625 77.55 271.625C75.89314 271.625 74.55 270.28186 74.55 268.625C74.55 266.96814 75.89314 265.625 77.55 265.625C79.206856 265.625 80.55 266.96814 80.55 268.625Z" fill-rule="nonzero"/><path fill="#000000" fill-opacity="0.0" clip-path="url(#id_0)" d="M121.26818 263.30823C121.26818 264.9651 119.92503 266.30823 118.26818 266.30823C116.61133 266.30823 115.26818 264.9651 115.26818 263.30823C115.26818 261.65137 116.61133 260.30823 118.26818 260.30823C119.92503 260.30823 121.26818 261.65137 121.26818 263.30823Z" fill-rule="nonzero"/><path fill="#000000" fill-opacity="0.0" clip-path="url(#id_0)" d="M161.98636 228.2488C161.98636 229.90565 160.64322 231.2488 158.98636 231.2488C157.32951 231.2488 155.98636 229.90565 155.98636 228.2488C155.98636 226.59193 157.32951 225.2488 158.98636 225.2488C160.64322 225.2488 161.98636 226.59193 161.98636 228.2488Z" fill-rule="nonzero"/><path fill="#000000" fill-opacity="0.0" clip-path="url(#id_0)" d="M202.70454 181.53986C202.70454 183.19672 201.3614 184.53986 199.70454 184.53986C198.04768 184.53986 196.70454 183.19672 196.70454 181.53986C196.70454 179.88301 198.04768 178.53986 199.70454 178.53986C201.3614 178.53986 202.70454 179.88301 202.70454 181.53986Z" fill-rule="nonzero"/><path fill="#000000" fill-opacity="0.0" clip-path="url(#id_0)" d="M243.42273 167.10454C243.42273 168.7614 242.07957 170.10454 240.42273 170.10454C238.76587 170.10454 237.42273 168.7614 237.42273 167.10454C237.42273 165.4477 238.76587 164.10454 240.42273 164.10454C242.07957 164.10454 243.42273 165.4477 243.42273 167.10454Z" fill-rule="nonzero"/><path fill="#000000" fill-opacity="0.0" clip-path="url(#id_0)" d="M284.1409 132.63455C284.1409 134.29141 282.79776 135.63455 281.1409 135.63455C279.48407 135.63455 278.1409 134.29141 278.1409 132.63455C278.1409 130.9777 279.48407 129.63455 281.1409 129.63455C282.79776 129.63455 284.1409 130.9777 284.1409 132.63455Z" fill-rule="nonzero"/><path fill="#000000" fill-opacity="0.0" clip-path="url(#id_0)" d="M324.8591 140.86377C324.8591 142.52063 323.51593 143.86377 321.8591 143.86377C320.20224 143.86377 318.8591 142.52063 318.8591 140.86377C318.8591 139.20691 320.20224 137.86377 321.8591 137.86377C323.51593 137.86377 324.8591 139.20691 324.8591 140.86377Z" fill-rule="nonzero"/><path fill="#000000" fill-opacity="0.0" clip-path="url(#id_0)" d="M365.57727 137.42691C365.57727 139.08376 364.23413 140.42691 362.57727 140.42691C360.9204 140.42691 359.57727 139.08376 359.57727 137.42691C359.57727 135.77005 360.9204 134.42691 362.57727 134.42691C364.23413 134.42691 365.57727 135.77005 365.57727 137.42691Z" fill-rule="nonzero"/><path fill="#000000" fill-opacity="0.0" clip-path="url(#id_0)" d="M406.29544 121.69386C406.29544 123.350716 404.9523 124.69386 403.29544 124.69386C401.6386 124.69386 400.29544 123.350716 400.29544 121.69386C400.29544 120.03701 401.6386 118.69386 403.29544 118.69386C404.9523 118.69386 406.29544 120.03701 406.29544 121.69386Z" fill-rule="nonzero"/><path fill="#000000" fill-opacity="0.0" clip-path="url(#id_0)" d="M447.01364 120.10046C447.01364 121.75731 445.6705 123.10046 444.01364 123.10046C442.35678 123.10046 441.01364 121.75731 441.01364 120.10046C441.01364 118.4436 442.35678 117.10046 444.01364 117.10046C445.6705 117.10046 447.01364 118.4436 447.01364 120.10046Z" fill-rule="nonzero"/><path fill="#000000" fill-opacity="0.0" clip-path="url(#id_0)" d="M487.7318 118.73003C487.7318 120.38688 486.38867 121.73003 484.7318 121.73003C483.07495 121.73003 481.7318 120.38688 481.7318 118.73003C481.7318 117.07317 483.07495 115.73003 484.7318 115.73003C486.38867 115.73003 487.7318 117.07317 487.7318 118.73003Z" fill-rule="nonzero"/><path fill="#000000" fill-opacity="0.0" clip-path="url(#id_0)" d="M528.45 118.250725C528.45 119.90758 527.1069 121.250725 525.45 121.250725C523.79315 121.250725 522.45 119.90758 522.45 118.250725C522.45 116.59387 523.79315 115.250725 525.45 115.250725C527.1069 115.250725 528.45 116.59387 528.45 118.250725Z" fill-rule="nonzero"/><path fill="#000000" d="M270.54688 346.6844L271.60938 346.59064Q271.6875 347.2469 271.96875 347.65314Q272.25 348.0594 272.82812 348.325Q273.42188 348.575 274.15625 348.575Q274.79688 348.575 275.29688 348.3875Q275.79688 348.1844 276.03125 347.85626Q276.28125 347.5125 276.28125 347.1219Q276.28125 346.71564 276.04688 346.41876Q275.8125 346.10626 275.28125 345.90314Q274.92188 345.7625 273.73438 345.48126Q272.5625 345.2 272.09375 344.95Q271.46875 344.6219 271.17188 344.15314Q270.875 343.66876 270.875 343.075Q270.875 342.4344 271.23438 341.8719Q271.60938 341.29376 272.3125 341.0125Q273.03125 340.71564 273.89062 340.71564Q274.84375 340.71564 275.57812 341.02814Q276.3125 341.325 276.70312 341.9344Q277.09375 342.52814 277.125 343.27814L276.03125 343.35626Q275.9375 342.54376 275.42188 342.1375Q274.92188 341.71564 273.9375 341.71564Q272.90625 341.71564 272.4375 342.09064Q271.96875 342.46564 271.96875 342.9969Q271.96875 343.46564 272.29688 343.7625Q272.625 344.0594 274.0 344.3719Q275.39062 344.6844 275.90625 344.91876Q276.65625 345.27814 277.01562 345.8094Q277.375 346.325 277.375 347.02814Q277.375 347.71564 276.98438 348.325Q276.59375 348.91876 275.85938 349.2625Q275.125 349.59064 274.20312 349.59064Q273.03125 349.59064 272.23438 349.2625Q271.45312 348.91876 271.0 348.23126Q270.5625 347.54376 270.54688 346.6844ZM278.79688 342.075L278.79688 340.85626L279.85938 340.85626L279.85938 342.075L278.79688 342.075ZM278.79688 349.45L278.79688 343.23126L279.85938 343.23126L279.85938 349.45L278.79688 349.45ZM281.23438 349.45L281.23438 348.59064L285.20312 344.04376Q284.51562 344.075 284.0 344.075L281.46875 344.075L281.46875 343.23126L286.5625 343.23126L286.5625 343.91876L283.1875 347.8719L282.53125 348.59064Q283.25 348.54376 283.85938 348.54376L286.75 348.54376L286.75 349.45L281.23438 349.45ZM291.04688 347.45L292.14062 347.575Q291.89062 348.52814 291.1875 349.0594Q290.48438 349.59064 289.40625 349.59064Q288.04688 349.59064 287.23438 348.7469Q286.4375 347.90314 286.4375 346.3875Q286.4375 344.825 287.25 343.96564Q288.0625 343.09064 289.34375 343.09064Q290.59375 343.09064 291.375 343.9344Q292.17188 344.77814 292.17188 346.325Q292.17188 346.41876 292.17188 346.60626L287.53125 346.60626Q287.59375 347.6375 288.10938 348.1844Q288.625 348.71564 289.40625 348.71564Q289.98438 348.71564 290.39062 348.41876Q290.8125 348.10626 291.04688 347.45ZM287.59375 345.7469L291.0625 345.7469Q291.0 344.95 290.67188 344.5594Q290.15625 343.95 289.35938 343.95Q288.625 343.95 288.125 344.4344Q287.64062 344.91876 287.59375 345.7469ZM298.8125 351.98126Q297.9375 350.8719 297.32812 349.40314Q296.73438 347.91876 296.73438 346.34064Q296.73438 344.95 297.17188 343.66876Q297.70312 342.1844 298.8125 340.71564L299.5625 340.71564Q298.85938 341.9344 298.625 342.45Q298.26562 343.2625 298.0625 344.1375Q297.8125 345.23126 297.8125 346.34064Q297.8125 349.16876 299.5625 351.98126L298.8125 351.98126ZM301.76562 349.45L300.78125 349.45L300.78125 340.85626L301.84375 340.85626L301.84375 343.91876Q302.51562 343.09064 303.54688 343.09064Q304.125 343.09064 304.625 343.325Q305.14062 343.54376 305.46875 343.96564Q305.8125 344.3875 306.0 344.98126Q306.1875 345.575 306.1875 346.2469Q306.1875 347.84064 305.39062 348.71564Q304.59375 349.59064 303.5 349.59064Q302.39062 349.59064 301.76562 348.66876L301.76562 349.45ZM301.75 346.29376Q301.75 347.40314 302.0625 347.90314Q302.5625 348.71564 303.40625 348.71564Q304.09375 348.71564 304.59375 348.1219Q305.10938 347.52814 305.10938 346.325Q305.10938 345.10626 304.625 344.52814Q304.14062 343.95 303.45312 343.95Q302.76562 343.95 302.25 344.5594Q301.75 345.15314 301.75 346.29376ZM307.75 351.84064L307.625 350.85626Q307.96875 350.95 308.23438 350.95Q308.57812 350.95 308.78125 350.825Q309.0 350.71564 309.14062 350.5125Q309.23438 350.34064 309.46875 349.71564Q309.48438 349.6375 309.5625 349.46564L307.1875 343.23126L308.32812 343.23126L309.625 346.825Q309.875 347.5125 310.07812 348.27814Q310.26562 347.54376 310.51562 346.85626L311.84375 343.23126L312.89062 343.23126L310.53125 349.5594Q310.14062 350.575 309.9375 350.96564Q309.65625 351.4969 309.28125 351.73126Q308.92188 351.98126 308.42188 351.98126Q308.125 351.98126 307.75 351.84064ZM315.09375 348.5125L315.25 349.4344Q314.79688 349.52814 314.45312 349.52814Q313.875 349.52814 313.5625 349.35626Q313.25 349.16876 313.10938 348.8719Q312.98438 348.575 312.98438 347.6219L312.98438 344.04376L312.21875 344.04376L312.21875 343.23126L312.98438 343.23126L312.98438 341.6844L314.03125 341.0594L314.03125 343.23126L315.09375 343.23126L315.09375 344.04376L314.03125 344.04376L314.03125 347.6844Q314.03125 348.1375 314.07812 348.2625Q314.14062 348.3875 314.26562 348.46564Q314.39062 348.54376 314.625 348.54376Q314.8125 348.54376 315.09375 348.5125ZM320.04688 347.45L321.14062 347.575Q320.89062 348.52814 320.1875 349.0594Q319.48438 349.59064 318.40625 349.59064Q317.04688 349.59064 316.23438 348.7469Q315.4375 347.90314 315.4375 346.3875Q315.4375 344.825 316.25 343.96564Q317.0625 343.09064 318.34375 343.09064Q319.59375 343.09064 320.375 343.9344Q321.17188 344.77814 321.17188 346.325Q321.17188 346.41876 321.17188 346.60626L316.53125 346.60626Q316.59375 347.6375 317.10938 348.1844Q317.625 348.71564 318.40625 348.71564Q318.98438 348.71564 319.39062 348.41876Q319.8125 348.10626 320.04688 347.45ZM316.59375 345.7469L320.0625 345.7469Q320.0 344.95 319.67188 344.5594Q319.15625 343.95 318.35938 343.95Q317.625 343.95 317.125 344.4344Q316.64062 344.91876 316.59375 345.7469ZM322.375 347.59064L323.40625 347.4344Q323.5 348.0594 323.89062 348.3875Q324.29688 348.71564 325.03125 348.71564Q325.75 348.71564 326.09375 348.4344Q326.45312 348.1375 326.45312 347.73126Q326.45312 347.3719 326.14062 347.16876Q325.92188 347.02814 325.0625 346.8094Q323.90625 346.5125 323.45312 346.3094Q323.01562 346.09064 322.78125 345.71564Q322.54688 345.34064 322.54688 344.8719Q322.54688 344.46564 322.73438 344.10626Q322.92188 343.7469 323.25 343.5125Q323.5 343.34064 323.92188 343.21564Q324.34375 343.09064 324.84375 343.09064Q325.5625 343.09064 326.10938 343.3094Q326.67188 343.5125 326.9375 343.8719Q327.20312 344.23126 327.29688 344.825L326.26562 344.96564Q326.20312 344.4969 325.85938 344.23126Q325.53125 343.95 324.90625 343.95Q324.1875 343.95 323.875 344.2Q323.5625 344.4344 323.5625 344.7625Q323.5625 344.96564 323.6875 345.1219Q323.82812 345.29376 324.09375 345.40314Q324.25 345.46564 325.03125 345.66876Q326.15625 345.98126 326.59375 346.16876Q327.03125 346.35626 327.28125 346.71564Q327.53125 347.075 327.53125 347.6219Q327.53125 348.15314 327.21875 348.6219Q326.92188 349.075 326.34375 349.34064Q325.76562 349.59064 325.03125 349.59064Q323.8125 349.59064 323.17188 349.09064Q322.54688 348.575 322.375 347.59064ZM330.48438 351.98126L329.73438 351.98126Q331.48438 349.16876 331.48438 346.34064Q331.48438 345.2469 331.23438 344.15314Q331.03125 343.27814 330.67188 342.46564Q330.4375 341.95 329.73438 340.71564L330.48438 340.71564Q331.57812 342.1844 332.10938 343.66876Q332.5625 344.95 332.5625 346.34064Q332.5625 347.91876 331.95312 349.40314Q331.34375 350.8719 330.48438 351.98126Z" fill-rule="nonzero"/><path fill="#000000" d="M26.784388 265.3198L26.690638 264.2573Q27.346888 264.17917 27.753138 263.89792Q28.159388 263.61667 28.425013 263.03854Q28.675013 262.4448 28.675013 261.71042Q28.675013 261.0698 28.487513 260.5698Q28.284388 260.0698 27.956263 259.83542Q27.612513 259.58542 27.221888 259.58542Q26.815638 259.58542 26.518763 259.8198Q26.206263 260.05417 26.003138 260.58542Q25.862513 260.9448 25.581263 262.1323Q25.300013 263.30417 25.050013 263.77292Q24.721888 264.39792 24.253138 264.6948Q23.768763 264.99167 23.175013 264.99167Q22.534388 264.99167 21.971888 264.6323Q21.393763 264.2573 21.112513 263.55417Q20.815638 262.83542 20.815638 261.97604Q20.815638 261.02292 21.128138 260.28854Q21.425013 259.55417 22.034388 259.16354Q22.628138 258.77292 23.378138 258.74167L23.456263 259.83542Q22.643763 259.92917 22.237513 260.4448Q21.815638 260.9448 21.815638 261.92917Q21.815638 262.96042 22.190638 263.42917Q22.565638 263.89792 23.096888 263.89792Q23.565638 263.89792 23.862513 263.5698Q24.159388 263.24167 24.471888 261.86667Q24.784388 260.47604 25.018763 259.96042Q25.378138 259.21042 25.909388 258.85104Q26.425013 258.49167 27.128138 258.49167Q27.815638 258.49167 28.425013 258.8823Q29.018763 259.27292 29.362513 260.0073Q29.690638 260.74167 29.690638 261.66354Q29.690638 262.83542 29.362513 263.6323Q29.018763 264.41354 28.331263 264.86667Q27.643763 265.30417 26.784388 265.3198ZM31.940638 257.0698L23.331263 257.0698L23.331263 256.11667L24.128138 256.11667Q23.659388 255.77292 23.425013 255.35104Q23.190638 254.91354 23.190638 254.30417Q23.190638 253.5073 23.596888 252.89792Q24.003138 252.28854 24.753138 251.99167Q25.503138 251.67917 26.393763 251.67917Q27.346888 251.67917 28.112513 252.02292Q28.878138 252.35104 29.284388 253.0073Q29.690638 253.66354 29.690638 254.3823Q29.690638 254.91354 29.471888 255.33542Q29.237513 255.7573 28.909388 256.02292L31.940638 256.02292L31.940638 257.0698ZM26.471888 256.11667Q27.675013 256.11667 28.253138 255.6323Q28.815638 255.14792 28.815638 254.46042Q28.815638 253.7573 28.221888 253.2573Q27.628138 252.7573 26.378138 252.7573Q25.190638 252.7573 24.612513 253.24167Q24.018763 253.72604 24.018763 254.41354Q24.018763 255.08542 24.643763 255.60104Q25.268763 256.11667 26.471888 256.11667ZM27.550013 245.8198L27.675013 244.72604Q28.628138 244.97604 29.159388 245.67917Q29.690638 246.3823 29.690638 247.46042Q29.690638 248.8198 28.846888 249.6323Q28.003138 250.42917 26.487513 250.42917Q24.925013 250.42917 24.065638 249.61667Q23.190638 248.80417 23.190638 247.52292Q23.190638 246.27292 24.034388 245.49167Q24.878138 244.6948 26.425013 244.6948Q26.518763 244.6948 26.706263 244.6948L26.706263 249.33542Q27.737513 249.27292 28.284388 248.7573Q28.815638 248.24167 28.815638 247.46042Q28.815638 246.8823 28.518763 246.47604Q28.206263 246.05417 27.550013 245.8198ZM25.846888 249.27292L25.846888 245.80417Q25.050013 245.86667 24.659388 246.1948Q24.050013 246.71042 24.050013 247.5073Q24.050013 248.24167 24.534388 248.74167Q25.018763 249.22604 25.846888 249.27292ZM27.550013 238.8198L27.675013 237.72604Q28.628138 237.97604 29.159388 238.67917Q29.690638 239.3823 29.690638 240.46042Q29.690638 241.8198 28.846888 242.6323Q28.003138 243.42917 26.487513 243.42917Q24.925013 243.42917 24.065638 242.61667Q23.190638 241.80417 23.190638 240.52292Q23.190638 239.27292 24.034388 238.49167Q24.878138 237.6948 26.425013 237.6948Q26.518763 237.6948 26.706263 237.6948L26.706263 242.33542Q27.737513 242.27292 28.284388 241.7573Q28.815638 241.24167 28.815638 240.46042Q28.815638 239.8823 28.518763 239.47604Q28.206263 239.05417 27.550013 238.8198ZM25.846888 242.27292L25.846888 238.80417Q25.050013 238.86667 24.659388 239.1948Q24.050013 239.71042 24.050013 240.5073Q24.050013 241.24167 24.534388 241.74167Q25.018763 242.22604 25.846888 242.27292ZM29.550013 232.03854L28.768763 232.03854Q29.690638 232.6323 29.690638 233.77292Q29.690638 234.52292 29.284388 235.14792Q28.862513 235.77292 28.128138 236.11667Q27.393763 236.46042 26.440638 236.46042Q25.518763 236.46042 24.753138 236.14792Q23.987513 235.83542 23.596888 235.21042Q23.190638 234.58542 23.190638 233.8198Q23.190638 233.2573 23.425013 232.8198Q23.659388 232.3823 24.034388 232.10104L20.956263 232.10104L20.956263 231.05417L29.550013 231.05417L29.550013 232.03854ZM26.440638 235.36667Q27.643763 235.36667 28.237513 234.86667Q28.815638 234.36667 28.815638 233.67917Q28.815638 232.99167 28.253138 232.5073Q27.690638 232.02292 26.534388 232.02292Q25.253138 232.02292 24.659388 232.52292Q24.065638 233.0073 24.065638 233.72604Q24.065638 234.42917 24.643763 234.89792Q25.206263 235.36667 26.440638 235.36667ZM29.550013 221.99167L28.628138 221.99167Q29.690638 222.72604 29.690638 223.97604Q29.690638 224.52292 29.487513 225.0073Q29.268763 225.47604 28.956263 225.71042Q28.628138 225.9448 28.159388 226.03854Q27.862513 226.10104 27.175013 226.10104L23.331263 226.10104L23.331263 225.03854L26.784388 225.03854Q27.596888 225.03854 27.893763 224.97604Q28.300013 224.8823 28.550013 224.5698Q28.784388 224.24167 28.784388 223.7573Q28.784388 223.28854 28.550013 222.8823Q28.300013 222.46042 27.878138 222.28854Q27.456263 222.10104 26.659388 222.10104L23.331263 222.10104L23.331263 221.05417L29.550013 221.05417L29.550013 221.99167ZM31.940638 219.0698L23.331263 219.0698L23.331263 218.11667L24.128138 218.11667Q23.659388 217.77292 23.425013 217.35104Q23.190638 216.91354 23.190638 216.30417Q23.190638 215.5073 23.596888 214.89792Q24.003138 214.28854 24.753138 213.99167Q25.503138 213.67917 26.393763 213.67917Q27.346888 213.67917 28.112513 214.02292Q28.878138 214.35104 29.284388 215.0073Q29.690638 215.66354 29.690638 216.3823Q29.690638 216.91354 29.471888 217.33542Q29.237513 217.7573 28.909388 218.02292L31.940638 218.02292L31.940638 219.0698ZM26.471888 218.11667Q27.675013 218.11667 28.253138 217.6323Q28.815638 217.14792 28.815638 216.46042Q28.815638 215.7573 28.221888 215.2573Q27.628138 214.7573 26.378138 214.7573Q25.190638 214.7573 24.612513 215.24167Q24.018763 215.72604 24.018763 216.41354Q24.018763 217.08542 24.643763 217.60104Q25.268763 218.11667 26.471888 218.11667ZM26.440638 209.46042Q24.706263 209.46042 23.878138 208.5073Q23.190638 207.71042 23.190638 206.55417Q23.190638 205.27292 24.034388 204.46042Q24.862513 203.6323 26.346888 203.6323Q27.550013 203.6323 28.237513 203.99167Q28.925013 204.35104 29.315638 205.05417Q29.690638 205.74167 29.690638 206.55417Q29.690638 207.85104 28.862513 208.66354Q28.018763 209.46042 26.440638 209.46042ZM26.440638 208.3823Q27.628138 208.3823 28.221888 207.86667Q28.815638 207.33542 28.815638 206.55417Q28.815638 205.7573 28.221888 205.24167Q27.628138 204.72604 26.409388 204.72604Q25.253138 204.72604 24.659388 205.2573Q24.065638 205.77292 24.065638 206.55417Q24.065638 207.33542 24.659388 207.86667Q25.237513 208.3823 26.440638 208.3823ZM29.550013 200.35104L23.331263 202.71042L23.331263 201.60104L27.050013 200.2573Q27.659388 200.05417 28.300013 199.86667Q27.815638 199.72604 27.128138 199.47604L23.331263 198.08542L23.331263 197.0073L29.550013 199.36667L29.550013 200.35104ZM27.550013 192.8198L27.675013 191.72604Q28.628138 191.97604 29.159388 192.67917Q29.690638 193.3823 29.690638 194.46042Q29.690638 195.8198 28.846888 196.6323Q28.003138 197.42917 26.487513 197.42917Q24.925013 197.42917 24.065638 196.61667Q23.190638 195.80417 23.190638 194.52292Q23.190638 193.27292 24.034388 192.49167Q24.878138 191.6948 26.425013 191.6948Q26.518763 191.6948 26.706263 191.6948L26.706263 196.33542Q27.737513 196.27292 28.284388 195.7573Q28.815638 195.24167 28.815638 194.46042Q28.815638 193.8823 28.518763 193.47604Q28.206263 193.05417 27.550013 192.8198ZM25.846888 196.27292L25.846888 192.80417Q25.050013 192.86667 24.659388 193.1948Q24.050013 193.71042 24.050013 194.5073Q24.050013 195.24167 24.534388 195.74167Q25.018763 196.22604 25.846888 196.27292ZM29.550013 190.08542L23.331263 190.08542L23.331263 189.1323L24.268763 189.1323Q23.612513 188.77292 23.409388 188.47604Q23.190638 188.16354 23.190638 187.78854Q23.190638 187.2573 23.518763 186.71042L24.503138 187.0698Q24.268763 187.46042 24.268763 187.83542Q24.268763 188.1948 24.487513 188.47604Q24.690638 188.74167 25.065638 188.85104Q25.628138 189.03854 26.284388 189.03854L29.550013 189.03854L29.550013 190.08542ZM29.550013 182.10104L29.550013 183.08542L20.956263 183.08542L20.956263 182.02292L24.018763 182.02292Q23.190638 181.35104 23.190638 180.3198Q23.190638 179.74167 23.425013 179.24167Q23.643763 178.72604 24.065638 178.39792Q24.487513 178.05417 25.081263 177.86667Q25.675013 177.67917 26.346888 177.67917Q27.940638 177.67917 28.815638 178.47604Q29.690638 179.27292 29.690638 180.36667Q29.690638 181.47604 28.768763 182.10104L29.550013 182.10104ZM26.393763 182.11667Q27.503138 182.11667 28.003138 181.80417Q28.815638 181.30417 28.815638 180.46042Q28.815638 179.77292 28.221888 179.27292Q27.628138 178.7573 26.425013 178.7573Q25.206263 178.7573 24.628138 179.24167Q24.050013 179.72604 24.050013 180.41354Q24.050013 181.10104 24.659388 181.61667Q25.253138 182.11667 26.393763 182.11667ZM28.784388 172.0073Q29.284388 172.60104 29.487513 173.14792Q29.690638 173.67917 29.690638 174.30417Q29.690638 175.33542 29.190638 175.8823Q28.690638 176.42917 27.909388 176.42917Q27.456263 176.42917 27.081263 176.22604Q26.690638 176.02292 26.471888 175.67917Q26.237513 175.33542 26.128138 174.91354Q26.034388 174.61667 25.956263 173.97604Q25.815638 172.71042 25.596888 172.10104Q25.378138 172.10104 25.331263 172.10104Q24.675013 172.10104 24.409388 172.39792Q24.065638 172.80417 24.065638 173.60104Q24.065638 174.33542 24.331263 174.6948Q24.581263 175.05417 25.237513 175.22604L25.096888 176.2573Q24.440638 176.11667 24.034388 175.78854Q23.628138 175.46042 23.409388 174.85104Q23.190638 174.24167 23.190638 173.4448Q23.190638 172.64792 23.378138 172.14792Q23.565638 171.64792 23.846888 171.41354Q24.128138 171.17917 24.565638 171.08542Q24.831263 171.03854 25.534388 171.03854L26.940638 171.03854Q28.409388 171.03854 28.800013 170.97604Q29.190638 170.89792 29.550013 170.6948L29.550013 171.80417Q29.221888 171.96042 28.784388 172.0073ZM26.425013 172.10104Q26.659388 172.67917 26.831263 173.8198Q26.925013 174.47604 27.050013 174.74167Q27.159388 175.0073 27.378138 175.16354Q27.596888 175.30417 27.878138 175.30417Q28.300013 175.30417 28.581263 174.99167Q28.862513 174.66354 28.862513 174.05417Q28.862513 173.4448 28.596888 172.97604Q28.331263 172.49167 27.862513 172.27292Q27.503138 172.10104 26.815638 172.10104L26.425013 172.10104ZM27.690638 169.49167L27.534388 168.46042Q28.159388 168.36667 28.487513 167.97604Q28.815638 167.5698 28.815638 166.83542Q28.815638 166.11667 28.534388 165.77292Q28.237513 165.41354 27.831263 165.41354Q27.471888 165.41354 27.268763 165.72604Q27.128138 165.9448 26.909388 166.80417Q26.612513 167.96042 26.409388 168.41354Q26.190638 168.85104 25.815638 169.08542Q25.440638 169.3198 24.971888 169.3198Q24.565638 169.3198 24.206263 169.1323Q23.846888 168.9448 23.612513 168.61667Q23.440638 168.36667 23.315638 167.9448Q23.190638 167.52292 23.190638 167.02292Q23.190638 166.30417 23.409388 165.7573Q23.612513 165.1948 23.971888 164.92917Q24.331263 164.66354 24.925013 164.5698L25.065638 165.60104Q24.596888 165.66354 24.331263 166.0073Q24.050013 166.33542 24.050013 166.96042Q24.050013 167.67917 24.300013 167.99167Q24.534388 168.30417 24.862513 168.30417Q25.065638 168.30417 25.221888 168.17917Q25.393763 168.03854 25.503138 167.77292Q25.565638 167.61667 25.768763 166.83542Q26.081263 165.71042 26.268763 165.27292Q26.456263 164.83542 26.815638 164.58542Q27.175013 164.33542 27.721888 164.33542Q28.253138 164.33542 28.721888 164.64792Q29.175013 164.9448 29.440638 165.52292Q29.690638 166.10104 29.690638 166.83542Q29.690638 168.05417 29.190638 168.6948Q28.675013 169.3198 27.690638 169.49167ZM27.550013 157.8198L27.675013 156.72604Q28.628138 156.97604 29.159388 157.67917Q29.690638 158.3823 29.690638 159.46042Q29.690638 160.8198 28.846888 161.6323Q28.003138 162.42917 26.487513 162.42917Q24.925013 162.42917 24.065638 161.61667Q23.190638 160.80417 23.190638 159.52292Q23.190638 158.27292 24.034388 157.49167Q24.878138 156.6948 26.425013 156.6948Q26.518763 156.6948 26.706263 156.6948L26.706263 161.33542Q27.737513 161.27292 28.284388 160.7573Q28.815638 160.24167 28.815638 159.46042Q28.815638 158.8823 28.518763 158.47604Q28.206263 158.05417 27.550013 157.8198ZM25.846888 161.27292L25.846888 157.80417Q25.050013 157.86667 24.659388 158.1948Q24.050013 158.71042 24.050013 159.5073Q24.050013 160.24167 24.534388 160.74167Q25.018763 161.22604 25.846888 161.27292ZM29.550013 155.10104L20.956263 155.10104L20.956263 154.03854L29.550013 154.03854L29.550013 155.10104ZM22.175013 152.0698L20.956263 152.0698L20.956263 151.0073L22.175013 151.0073L22.175013 152.0698ZM29.550013 152.0698L23.331263 152.0698L23.331263 151.0073L29.550013 151.0073L29.550013 152.0698ZM29.550013 149.0698L23.331263 149.0698L23.331263 148.1323L24.206263 148.1323Q23.190638 147.4448 23.190638 146.14792Q23.190638 145.58542 23.393763 145.11667Q23.596888 144.6323 23.925013 144.39792Q24.253138 144.16354 24.690638 144.0698Q24.987513 144.02292 25.721888 144.02292L29.550013 144.02292L29.550013 145.0698L25.768763 145.0698Q25.112513 145.0698 24.800013 145.1948Q24.487513 145.3198 24.300013 145.6323Q24.096888 145.9448 24.096888 146.36667Q24.096888 147.03854 24.534388 147.53854Q24.956263 148.02292 26.143763 148.02292L29.550013 148.02292L29.550013 149.0698ZM27.550013 137.8198L27.675013 136.72604Q28.628138 136.97604 29.159388 137.67917Q29.690638 138.3823 29.690638 139.46042Q29.690638 140.8198 28.846888 141.6323Q28.003138 142.42917 26.487513 142.42917Q24.925013 142.42917 24.065638 141.61667Q23.190638 140.80417 23.190638 139.52292Q23.190638 138.27292 24.034388 137.49167Q24.878138 136.6948 26.425013 136.6948Q26.518763 136.6948 26.706263 136.6948L26.706263 141.33542Q27.737513 141.27292 28.284388 140.7573Q28.815638 140.24167 28.815638 139.46042Q28.815638 138.8823 28.518763 138.47604Q28.206263 138.05417 27.550013 137.8198ZM25.846888 141.27292L25.846888 137.80417Q25.050013 137.86667 24.659388 138.1948Q24.050013 138.71042 24.050013 139.5073Q24.050013 140.24167 24.534388 140.74167Q25.018763 141.22604 25.846888 141.27292Z" fill-rule="nonzero"/><path fill="#000000" d="M65.05 300.21564Q65.05 298.6844 65.3625 297.7625Q65.675 296.825 66.28438 296.325Q66.90938 295.825 67.84688 295.825Q68.53438 295.825 69.05 296.10626Q69.58125 296.3875 69.925 296.91876Q70.26875 297.4344 70.45625 298.1844Q70.64375 298.9344 70.64375 300.21564Q70.64375 301.73126 70.33125 302.65314Q70.03438 303.575 69.40938 304.09064Q68.8 304.59064 67.84688 304.59064Q66.6125 304.59064 65.89375 303.7Q65.05 302.6375 65.05 300.21564ZM66.12813 300.21564Q66.12813 302.325 66.62813 303.02814Q67.12813 303.73126 67.84688 303.73126Q68.58125 303.73126 69.06563 303.02814Q69.56563 302.325 69.56563 300.21564Q69.56563 298.09064 69.06563 297.40314Q68.58125 296.7 67.83125 296.7Q67.1125 296.7 66.675 297.3094Q66.12813 298.09064 66.12813 300.21564Z" fill-rule="nonzero"/><path fill="#000000" d="M69.01875 262.01666L67.97188 262.01666L67.97188 255.29791Q67.58125 255.65729 66.95625 256.0323Q66.34688 256.39166 65.8625 256.56354L65.8625 255.54791Q66.7375 255.12604 67.39375 254.54791Q68.06563 253.95416 68.34688 253.39166L69.01875 253.39166L69.01875 262.01666Z" fill-rule="nonzero"/><path fill="#000000" d="M70.59688 218.5677L70.59688 219.58333L64.90938 219.58333Q64.90938 219.20833 65.03438 218.84895Q65.25313 218.27083 65.72188 217.70833Q66.20625 217.14583 67.1125 216.41145Q68.51875 215.2552 69.00313 214.58333Q69.50313 213.91145 69.50313 213.3177Q69.50313 212.6927 69.05 212.27083Q68.59688 211.83333 67.87813 211.83333Q67.1125 211.83333 66.65938 212.28645Q66.20625 212.73958 66.19063 213.55208L65.1125 213.4427Q65.22188 212.22395 65.94063 211.59895Q66.675 210.95833 67.90938 210.95833Q69.14375 210.95833 69.8625 211.64583Q70.58125 212.33333 70.58125 213.34895Q70.58125 213.86458 70.3625 214.36458Q70.15938 214.84895 69.65938 215.41145Q69.175 215.95833 68.05 216.91145Q67.09688 217.70833 66.81563 218.0052Q66.55 218.28645 66.37813 218.5677L70.59688 218.5677Z" fill-rule="nonzero"/><path fill="#000000" d="M65.05 174.88437L66.1125 174.74374Q66.28438 175.63437 66.72188 176.04062Q67.15938 176.43124 67.78438 176.43124Q68.53438 176.43124 69.05 175.91562Q69.56563 175.4 69.56563 174.63437Q69.56563 173.91562 69.08125 173.44687Q68.6125 172.9625 67.87813 172.9625Q67.58125 172.9625 67.12813 173.0875L67.25313 172.15Q67.3625 172.16562 67.425 172.16562Q68.09688 172.16562 68.62813 171.82187Q69.175 171.4625 69.175 170.72812Q69.175 170.15 68.78438 169.775Q68.39375 169.38437 67.76875 169.38437Q67.15938 169.38437 66.7375 169.775Q66.33125 170.16562 66.22188 170.93124L65.15938 170.74374Q65.34688 169.69687 66.03438 169.11874Q66.72188 168.525 67.7375 168.525Q68.44063 168.525 69.03438 168.8375Q69.62813 169.13437 69.94063 169.65Q70.25313 170.16562 70.25313 170.75937Q70.25313 171.30624 69.95625 171.775Q69.65938 172.22812 69.08125 172.49374Q69.83125 172.66562 70.25313 173.22812Q70.675 173.775 70.675 174.61874Q70.675 175.74374 69.84688 176.525Q69.03438 177.30624 67.78438 177.30624Q66.65938 177.30624 65.90938 176.63437Q65.15938 175.94687 65.05 174.88437Z" fill-rule="nonzero"/><path fill="#000000" d="M68.425 134.71666L68.425 132.65416L64.70625 132.65416L64.70625 131.68541L68.62813 126.12291L69.4875 126.12291L69.4875 131.68541L70.64375 131.68541L70.64375 132.65416L69.4875 132.65416L69.4875 134.71666L68.425 134.71666ZM68.425 131.68541L68.425 127.826035L65.7375 131.68541L68.425 131.68541Z" fill-rule="nonzero"/><path fill="#000000" d="M65.05 90.03333L66.15938 89.93958Q66.28438 90.75208 66.72188 91.15833Q67.175 91.56458 67.81563 91.56458Q68.56563 91.56458 69.09688 90.98646Q69.62813 90.40833 69.62813 89.47083Q69.62813 88.56458 69.1125 88.04896Q68.6125 87.51771 67.78438 87.51771Q67.28438 87.51771 66.8625 87.75208Q66.45625 87.98646 66.22188 88.34583L65.2375 88.22083L66.06563 83.81458L70.34688 83.81458L70.34688 84.81458L66.90938 84.81458L66.45625 87.12708Q67.22188 86.58021 68.06563 86.58021Q69.19063 86.58021 69.95625 87.36146Q70.7375 88.14271 70.7375 89.37708Q70.7375 90.53333 70.06563 91.39271Q69.2375 92.42396 67.81563 92.42396Q66.64375 92.42396 65.89375 91.76771Q65.15938 91.11146 65.05 90.03333Z" fill-rule="nonzero"/><path fill="#000000" d="M78.51875 317.45L77.47188 317.45L77.47188 310.73126Q77.08125 311.09064 76.45625 311.46564Q75.84688 311.825 75.3625 311.9969L75.3625 310.98126Q76.2375 310.5594 76.89375 309.98126Q77.56563 309.3875 77.84688 308.825L78.51875 308.825L78.51875 317.45Z" fill-rule="nonzero"/><path fill="#000000" d="M210.28162 317.45L209.23474 317.45L209.23474 310.73126Q208.84412 311.09064 208.21912 311.46564Q207.60974 311.825 207.12537 311.9969L207.12537 310.98126Q208.00037 310.5594 208.65662 309.98126Q209.32849 309.3875 209.60974 308.825L210.28162 308.825L210.28162 317.45ZM213.31287 313.21564Q213.31287 311.6844 213.62537 310.7625Q213.93787 309.825 214.54724 309.325Q215.17224 308.825 216.10974 308.825Q216.79724 308.825 217.31287 309.10626Q217.84412 309.3875 218.18787 309.91876Q218.53162 310.4344 218.71912 311.1844Q218.90662 311.9344 218.90662 313.21564Q218.90662 314.73126 218.59412 315.65314Q218.29724 316.575 217.67224 317.09064Q217.06287 317.59064 216.10974 317.59064Q214.87537 317.59064 214.15662 316.7Q213.31287 315.6375 213.31287 313.21564ZM214.39099 313.21564Q214.39099 315.325 214.89099 316.02814Q215.39099 316.73126 216.10974 316.73126Q216.84412 316.73126 217.32849 316.02814Q217.82849 315.325 217.82849 313.21564Q217.82849 311.09064 217.32849 310.40314Q216.84412 309.7 216.09412 309.7Q215.37537 309.7 214.93787 310.3094Q214.39099 311.09064 214.39099 313.21564Z" fill-rule="nonzero"/><path fill="#000000" d="M342.0445 317.45L340.99762 317.45L340.99762 310.73126Q340.607 311.09064 339.982 311.46564Q339.37262 311.825 338.88824 311.9969L338.88824 310.98126Q339.76324 310.5594 340.4195 309.98126Q341.09137 309.3875 341.37262 308.825L342.0445 308.825L342.0445 317.45ZM345.07574 313.21564Q345.07574 311.6844 345.38824 310.7625Q345.70074 309.825 346.31012 309.325Q346.93512 308.825 347.87262 308.825Q348.56012 308.825 349.07574 309.10626Q349.607 309.3875 349.95074 309.91876Q350.2945 310.4344 350.482 311.1844Q350.6695 311.9344 350.6695 313.21564Q350.6695 314.73126 350.357 315.65314Q350.06012 316.575 349.43512 317.09064Q348.82574 317.59064 347.87262 317.59064Q346.63824 317.59064 345.9195 316.7Q345.07574 315.6375 345.07574 313.21564ZM346.15387 313.21564Q346.15387 315.325 346.65387 316.02814Q347.15387 316.73126 347.87262 316.73126Q348.607 316.73126 349.09137 316.02814Q349.59137 315.325 349.59137 313.21564Q349.59137 311.09064 349.09137 310.40314Q348.607 309.7 347.857 309.7Q347.13824 309.7 346.70074 310.3094Q346.15387 311.09064 346.15387 313.21564ZM352.07574 313.21564Q352.07574 311.6844 352.38824 310.7625Q352.70074 309.825 353.31012 309.325Q353.93512 308.825 354.87262 308.825Q355.56012 308.825 356.07574 309.10626Q356.607 309.3875 356.95074 309.91876Q357.2945 310.4344 357.482 311.1844Q357.6695 311.9344 357.6695 313.21564Q357.6695 314.73126 357.357 315.65314Q357.06012 316.575 356.43512 317.09064Q355.82574 317.59064 354.87262 317.59064Q353.63824 317.59064 352.9195 316.7Q352.07574 315.6375 352.07574 313.21564ZM353.15387 313.21564Q353.15387 315.325 353.65387 316.02814Q354.15387 316.73126 354.87262 316.73126Q355.607 316.73126 356.09137 316.02814Q356.59137 315.325 356.59137 313.21564Q356.59137 311.09064 356.09137 310.40314Q355.607 309.7 354.857 309.7Q354.13824 309.7 353.70074 310.3094Q353.15387 311.09064 353.15387 313.21564Z" fill-rule="nonzero"/><path fill="#000000" d="M473.80737 317.45L472.7605 317.45L472.7605 310.73126Q472.36987 311.09064 471.74487 311.46564Q471.1355 311.825 470.65112 311.9969L470.65112 310.98126Q471.52612 310.5594 472.18237 309.98126Q472.85425 309.3875 473.1355 308.825L473.80737 308.825L473.80737 317.45ZM476.83862 313.21564Q476.83862 311.6844 477.15112 310.7625Q477.46362 309.825 478.073 309.325Q478.698 308.825 479.6355 308.825Q480.323 308.825 480.83862 309.10626Q481.36987 309.3875 481.71362 309.91876Q482.05737 310.4344 482.24487 311.1844Q482.43237 311.9344 482.43237 313.21564Q482.43237 314.73126 482.11987 315.65314Q481.823 316.575 481.198 317.09064Q480.58862 317.59064 479.6355 317.59064Q478.40112 317.59064 477.68237 316.7Q476.83862 315.6375 476.83862 313.21564ZM477.91675 313.21564Q477.91675 315.325 478.41675 316.02814Q478.91675 316.73126 479.6355 316.73126Q480.36987 316.73126 480.85425 316.02814Q481.35425 315.325 481.35425 313.21564Q481.35425 311.09064 480.85425 310.40314Q480.36987 309.7 479.61987 309.7Q478.90112 309.7 478.46362 310.3094Q477.91675 311.09064 477.91675 313.21564ZM483.83862 313.21564Q483.83862 311.6844 484.15112 310.7625Q484.46362 309.825 485.073 309.325Q485.698 308.825 486.6355 308.825Q487.323 308.825 487.83862 309.10626Q488.36987 309.3875 488.71362 309.91876Q489.05737 310.4344 489.24487 311.1844Q489.43237 311.9344 489.43237 313.21564Q489.43237 314.73126 489.11987 315.65314Q488.823 316.575 488.198 317.09064Q487.58862 317.59064 486.6355 317.59064Q485.40112 317.59064 484.68237 316.7Q483.83862 315.6375 483.83862 313.21564ZM484.91675 313.21564Q484.91675 315.325 485.41675 316.02814Q485.91675 316.73126 486.6355 316.73126Q487.36987 316.73126 487.85425 316.02814Q488.35425 315.325 488.35425 313.21564Q488.35425 311.09064 487.85425 310.40314Q487.36987 309.7 486.61987 309.7Q485.90112 309.7 485.46362 310.3094Q484.91675 311.09064 484.91675 313.21564ZM490.83862 313.21564Q490.83862 311.6844 491.15112 310.7625Q491.46362 309.825 492.073 309.325Q492.698 308.825 493.6355 308.825Q494.323 308.825 494.83862 309.10626Q495.36987 309.3875 495.71362 309.91876Q496.05737 310.4344 496.24487 311.1844Q496.43237 311.9344 496.43237 313.21564Q496.43237 314.73126 496.11987 315.65314Q495.823 316.575 495.198 317.09064Q494.58862 317.59064 493.6355 317.59064Q492.40112 317.59064 491.68237 316.7Q490.83862 315.6375 490.83862 313.21564ZM491.91675 313.21564Q491.91675 315.325 492.41675 316.02814Q492.91675 316.73126 493.6355 316.73126Q494.36987 316.73126 494.85425 316.02814Q495.35425 315.325 495.35425 313.21564Q495.35425 311.09064 494.85425 310.40314Q494.36987 309.7 493.61987 309.7Q492.90112 309.7 492.46362 310.3094Q491.91675 311.09064 491.91675 313.21564Z" fill-rule="nonzero"/><path stroke="#ea4335" stroke-width="4.0" stroke-linecap="butt" d="M226.5 61.916668L238.5 61.916668" fill-rule="nonzero"/><path fill="#1a1a1a" d="M251.32812 65.916664L251.32812 65.135414Q250.73438 66.05729 249.59375 66.05729Q248.84375 66.05729 248.21875 65.65104Q247.59375 65.229164 247.25 64.49479Q246.90625 63.760414 246.90625 62.80729Q246.90625 61.885414 247.21875 61.11979Q247.53125 60.354164 248.15625 59.96354Q248.78125 59.55729 249.54688 59.55729Q250.10938 59.55729 250.54688 59.791664Q250.98438 60.02604 251.26562 60.40104L251.26562 57.322914L252.3125 57.322914L252.3125 65.916664L251.32812 65.916664ZM248.0 62.80729Q248.0 64.010414 248.5 64.604164Q249.0 65.18229 249.6875 65.18229Q250.375 65.18229 250.85938 64.61979Q251.34375 64.05729 251.34375 62.90104Q251.34375 61.61979 250.84375 61.02604Q250.35938 60.43229 249.64062 60.43229Q248.9375 60.43229 248.46875 61.010414Q248.0 61.572914 248.0 62.80729ZM258.54688 63.916664L259.64062 64.041664Q259.39062 64.99479 258.6875 65.52604Q257.98438 66.05729 256.90625 66.05729Q255.54688 66.05729 254.73438 65.21354Q253.9375 64.36979 253.9375 62.854164Q253.9375 61.291664 254.75 60.43229Q255.5625 59.55729 256.84375 59.55729Q258.09375 59.55729 258.875 60.40104Q259.67188 61.24479 259.67188 62.791664Q259.67188 62.885414 259.67188 63.072914L255.03125 63.072914Q255.09375 64.104164 255.60938 64.65104Q256.125 65.18229 256.90625 65.18229Q257.48438 65.18229 257.89062 64.885414Q258.3125 64.572914 258.54688 63.916664ZM255.09375 62.21354L258.5625 62.21354Q258.5 61.416664 258.17188 61.02604Q257.65625 60.416664 256.85938 60.416664Q256.125 60.416664 255.625 60.90104Q255.14062 61.385414 255.09375 62.21354ZM263.01562 65.916664L260.65625 59.697914L261.76562 59.697914L263.10938 63.416664Q263.3125 64.02604 263.5 64.666664Q263.64062 64.18229 263.89062 63.49479L265.28125 59.697914L266.35938 59.697914L264.0 65.916664L263.01562 65.916664ZM270.54688 63.916664L271.64062 64.041664Q271.39062 64.99479 270.6875 65.52604Q269.98438 66.05729 268.90625 66.05729Q267.54688 66.05729 266.73438 65.21354Q265.9375 64.36979 265.9375 62.854164Q265.9375 61.291664 266.75 60.43229Q267.5625 59.55729 268.84375 59.55729Q270.09375 59.55729 270.875 60.40104Q271.67188 61.24479 271.67188 62.791664Q271.67188 62.885414 271.67188 63.072914L267.03125 63.072914Q267.09375 64.104164 267.60938 64.65104Q268.125 65.18229 268.90625 65.18229Q269.48438 65.18229 269.89062 64.885414Q270.3125 64.572914 270.54688 63.916664ZM267.09375 62.21354L270.5625 62.21354Q270.5 61.416664 270.17188 61.02604Q269.65625 60.416664 268.85938 60.416664Q268.125 60.416664 267.625 60.90104Q267.14062 61.385414 267.09375 62.21354ZM273.26562 65.916664L273.26562 57.322914L274.32812 57.322914L274.32812 65.916664L273.26562 65.916664ZM275.90625 62.80729Q275.90625 61.072914 276.85938 60.24479Q277.65625 59.55729 278.8125 59.55729Q280.09375 59.55729 280.90625 60.40104Q281.73438 61.229164 281.73438 62.71354Q281.73438 63.916664 281.375 64.604164Q281.01562 65.291664 280.3125 65.68229Q279.625 66.05729 278.8125 66.05729Q277.51562 66.05729 276.70312 65.229164Q275.90625 64.385414 275.90625 62.80729ZM276.98438 62.80729Q276.98438 63.99479 277.5 64.58854Q278.03125 65.18229 278.8125 65.18229Q279.60938 65.18229 280.125 64.58854Q280.64062 63.99479 280.64062 62.77604Q280.64062 61.61979 280.10938 61.02604Q279.59375 60.43229 278.8125 60.43229Q278.03125 60.43229 277.5 61.02604Q276.98438 61.604164 276.98438 62.80729ZM283.29688 68.30729L283.29688 59.697914L284.25 59.697914L284.25 60.49479Q284.59375 60.02604 285.01562 59.791664Q285.45312 59.55729 286.0625 59.55729Q286.85938 59.55729 287.46875 59.96354Q288.07812 60.36979 288.375 61.11979Q288.6875 61.86979 288.6875 62.760414Q288.6875 63.71354 288.34375 64.479164Q288.01562 65.24479 287.35938 65.65104Q286.70312 66.05729 285.98438 66.05729Q285.45312 66.05729 285.03125 65.83854Q284.60938 65.604164 284.34375 65.27604L284.34375 68.30729L283.29688 68.30729ZM284.25 62.83854Q284.25 64.041664 284.73438 64.61979Q285.21875 65.18229 285.90625 65.18229Q286.60938 65.18229 287.10938 64.58854Q287.60938 63.99479 287.60938 62.74479Q287.60938 61.55729 287.125 60.979164Q286.64062 60.385414 285.95312 60.385414Q285.28125 60.385414 284.76562 61.010414Q284.25 61.635414 284.25 62.83854ZM290.29688 65.916664L290.29688 59.697914L291.23438 59.697914L291.23438 60.572914Q291.53125 60.104164 292.01562 59.83854Q292.5 59.55729 293.125 59.55729Q293.8125 59.55729 294.25 59.83854Q294.70312 60.11979 294.875 60.635414Q295.625 59.55729 296.79688 59.55729Q297.73438 59.55729 298.21875 60.072914Q298.71875 60.572914 298.71875 61.65104L298.71875 65.916664L297.67188 65.916664L297.67188 61.99479Q297.67188 61.36979 297.5625 61.08854Q297.46875 60.80729 297.20312 60.635414Q296.9375 60.46354 296.5625 60.46354Q295.90625 60.46354 295.46875 60.90104Q295.04688 61.33854 295.04688 62.30729L295.04688 65.916664L293.98438 65.916664L293.98438 61.86979Q293.98438 61.166664 293.71875 60.822914Q293.46875 60.46354 292.89062 60.46354Q292.4375 60.46354 292.0625 60.697914Q291.6875 60.93229 291.51562 61.385414Q291.34375 61.83854 291.34375 62.68229L291.34375 65.916664L290.29688 65.916664ZM305.54688 63.916664L306.64062 64.041664Q306.39062 64.99479 305.6875 65.52604Q304.98438 66.05729 303.90625 66.05729Q302.54688 66.05729 301.73438 65.21354Q300.9375 64.36979 300.9375 62.854164Q300.9375 61.291664 301.75 60.43229Q302.5625 59.55729 303.84375 59.55729Q305.09375 59.55729 305.875 60.40104Q306.67188 61.24479 306.67188 62.791664Q306.67188 62.885414 306.67188 63.072914L302.03125 63.072914Q302.09375 64.104164 302.60938 64.65104Q303.125 65.18229 303.90625 65.18229Q304.48438 65.18229 304.89062 64.885414Q305.3125 64.572914 305.54688 63.916664ZM302.09375 62.21354L305.5625 62.21354Q305.5 61.416664 305.17188 61.02604Q304.65625 60.416664 303.85938 60.416664Q303.125 60.416664 302.625 60.90104Q302.14062 61.385414 302.09375 62.21354ZM308.29688 65.916664L308.29688 59.697914L309.23438 59.697914L309.23438 60.572914Q309.92188 59.55729 311.21875 59.55729Q311.78125 59.55729 312.25 59.760414Q312.73438 59.96354 312.96875 60.291664Q313.20312 60.61979 313.29688 61.05729Q313.34375 61.354164 313.34375 62.08854L313.34375 65.916664L312.29688 65.916664L312.29688 62.135414Q312.29688 61.479164 312.17188 61.166664Q312.04688 60.854164 311.73438 60.666664Q311.42188 60.46354 311.0 60.46354Q310.32812 60.46354 309.82812 60.90104Q309.34375 61.322914 309.34375 62.510414L309.34375 65.916664L308.29688 65.916664ZM317.59375 64.979164L317.75 65.90104Q317.29688 65.99479 316.95312 65.99479Q316.375 65.99479 316.0625 65.822914Q315.75 65.635414 315.60938 65.33854Q315.48438 65.041664 315.48438 64.08854L315.48438 60.510414L314.71875 60.510414L314.71875 59.697914L315.48438 59.697914L315.48438 58.15104L316.53125 57.52604L316.53125 59.697914L317.59375 59.697914L317.59375 60.510414L316.53125 60.510414L316.53125 64.15104Q316.53125 64.604164 316.57812 64.729164Q316.64062 64.854164 316.76562 64.93229Q316.89062 65.010414 317.125 65.010414Q317.3125 65.010414 317.59375 64.979164Z" fill-rule="nonzero"/><path fill="#757575" d="M145.3125 37.55L145.3125 27.175L146.89062 27.175L146.89062 28.628124Q147.375 27.878124 148.1875 27.409374Q149.0 26.940624 150.03125 26.940624Q151.1875 26.940624 151.92188 27.425Q152.65625 27.89375 152.96875 28.753124Q154.20312 26.940624 156.17188 26.940624Q157.71875 26.940624 158.54688 27.8Q159.375 28.659374 159.375 30.425L159.375 37.55L157.625 37.55L157.625 31.01875Q157.625 29.95625 157.45312 29.503124Q157.28125 29.034374 156.82812 28.753124Q156.39062 28.471874 155.78125 28.471874Q154.6875 28.471874 153.95312 29.20625Q153.23438 29.925 153.23438 31.51875L153.23438 37.55L151.48438 37.55L151.48438 30.815624Q151.48438 29.64375 151.04688 29.065624Q150.625 28.471874 149.64062 28.471874Q148.90625 28.471874 148.26562 28.8625Q147.64062 29.253124 147.35938 30.003124Q147.07812 30.753124 147.07812 32.175L147.07812 37.55L145.3125 37.55ZM168.42188 34.20625L170.23438 34.440624Q169.8125 36.01875 168.64062 36.909374Q167.48438 37.784374 165.67188 37.784374Q163.40625 37.784374 162.0625 36.39375Q160.73438 34.9875 160.73438 32.45625Q160.73438 29.83125 162.07812 28.39375Q163.42188 26.940624 165.57812 26.940624Q167.65625 26.940624 168.96875 28.3625Q170.29688 29.76875 170.29688 32.346874Q170.29688 32.503124 170.28125 32.815624L162.54688 32.815624Q162.64062 34.51875 163.51562 35.425Q164.39062 36.33125 165.6875 36.33125Q166.65625 36.33125 167.32812 35.83125Q168.01562 35.315624 168.42188 34.20625ZM162.64062 31.3625L168.4375 31.3625Q168.32812 30.065624 167.78125 29.409374Q166.9375 28.39375 165.59375 28.39375Q164.39062 28.39375 163.5625 29.20625Q162.73438 30.003124 162.64062 31.3625ZM172.3125 37.55L172.3125 27.175L173.89062 27.175L173.89062 28.628124Q174.375 27.878124 175.1875 27.409374Q176.0 26.940624 177.03125 26.940624Q178.1875 26.940624 178.92188 27.425Q179.65625 27.89375 179.96875 28.753124Q181.20312 26.940624 183.17188 26.940624Q184.71875 26.940624 185.54688 27.8Q186.375 28.659374 186.375 30.425L186.375 37.55L184.625 37.55L184.625 31.01875Q184.625 29.95625 184.45312 29.503124Q184.28125 29.034374 183.82812 28.753124Q183.39062 28.471874 182.78125 28.471874Q181.6875 28.471874 180.95312 29.20625Q180.23438 29.925 180.23438 31.51875L180.23438 37.55L178.48438 37.55L178.48438 30.815624Q178.48438 29.64375 178.04688 29.065624Q177.625 28.471874 176.64062 28.471874Q175.90625 28.471874 175.26562 28.8625Q174.64062 29.253124 174.35938 30.003124Q174.07812 30.753124 174.07812 32.175L174.07812 37.55L172.3125 37.55ZM195.09375 33.753124L196.8125 33.971874Q196.53125 35.76875 195.35938 36.784374Q194.20312 37.784374 192.5 37.784374Q190.375 37.784374 189.07812 36.39375Q187.78125 35.003124 187.78125 32.409374Q187.78125 30.721874 188.32812 29.471874Q188.89062 28.20625 190.03125 27.58125Q191.17188 26.940624 192.51562 26.940624Q194.20312 26.940624 195.26562 27.8Q196.34375 28.659374 196.65625 30.221874L194.9375 30.4875Q194.70312 29.440624 194.07812 28.925Q193.45312 28.39375 192.57812 28.39375Q191.25 28.39375 190.42188 29.346874Q189.59375 30.3 189.59375 32.346874Q189.59375 34.440624 190.39062 35.39375Q191.1875 36.33125 192.48438 36.33125Q193.51562 36.33125 194.20312 35.70625Q194.90625 35.065624 195.09375 33.753124ZM198.3125 41.51875L198.3125 27.175L199.92188 27.175L199.92188 28.51875Q200.48438 27.7375 201.1875 27.346874Q201.90625 26.940624 202.92188 26.940624Q204.25 26.940624 205.26562 27.628124Q206.28125 28.315624 206.79688 29.565624Q207.32812 30.8 207.32812 32.284374Q207.32812 33.878124 206.75 35.159374Q206.1875 36.425 205.09375 37.1125Q204.0 37.784374 202.79688 37.784374Q201.92188 37.784374 201.21875 37.409374Q200.53125 37.034374 200.07812 36.471874L200.07812 41.51875L198.3125 41.51875ZM199.90625 32.425Q199.90625 34.425 200.71875 35.378124Q201.53125 36.33125 202.6875 36.33125Q203.85938 36.33125 204.6875 35.346874Q205.53125 34.3625 205.53125 32.26875Q205.53125 30.3 204.70312 29.315624Q203.89062 28.315624 202.76562 28.315624Q201.64062 28.315624 200.76562 29.378124Q199.90625 30.425 199.90625 32.425ZM209.23438 41.55L209.04688 39.89375Q209.625 40.05 210.04688 40.05Q210.64062 40.05 210.98438 39.846874Q211.34375 39.659374 211.5625 39.315624Q211.73438 39.05 212.10938 38.003124Q212.15625 37.846874 212.26562 37.565624L208.32812 27.175L210.21875 27.175L212.375 33.190624Q212.79688 34.33125 213.125 35.58125Q213.4375 34.378124 213.84375 33.221874L216.0625 27.175L217.82812 27.175L213.875 37.721874Q213.25 39.440624 212.89062 40.08125Q212.42188 40.95625 211.8125 41.346874Q211.21875 41.753124 210.375 41.753124Q209.85938 41.753124 209.23438 41.55ZM229.64062 37.55L224.09375 23.2375L226.14062 23.2375L229.85938 33.628124Q230.3125 34.878124 230.60938 35.971874Q230.9375 34.8 231.39062 33.628124L235.25 23.2375L237.1875 23.2375L231.57812 37.55L229.64062 37.55ZM238.46875 37.55L238.46875 23.2375L240.35938 23.2375L240.35938 35.8625L247.40625 35.8625L247.40625 37.55L238.46875 37.55ZM249.57812 37.55L249.57812 23.2375L259.9375 23.2375L259.9375 24.925L251.48438 24.925L251.48438 29.3L259.39062 29.3L259.39062 30.9875L251.48438 30.9875L251.48438 35.8625L260.26562 35.8625L260.26562 37.55L249.57812 37.55ZM262.53125 37.55L262.53125 23.2375L264.46875 23.2375L271.98438 34.471874L271.98438 23.2375L273.79688 23.2375L273.79688 37.55L271.85938 37.55L264.34375 26.3L264.34375 37.55L262.53125 37.55ZM284.5625 29.128124L275.10938 29.128124L275.10938 27.4875L284.5625 27.4875L284.5625 29.128124ZM284.5625 33.471874L275.10938 33.471874L275.10938 31.83125L284.5625 31.83125L284.5625 33.471874ZM293.45312 37.55L291.6875 37.55L291.6875 26.346874Q291.0625 26.95625 290.03125 27.565624Q289.0 28.159374 288.17188 28.471874L288.17188 26.76875Q289.65625 26.08125 290.75 25.096874Q291.85938 24.096874 292.3125 23.175L293.45312 23.175L293.45312 37.55ZM307.0625 35.8625L307.0625 37.55L297.60938 37.55Q297.59375 36.909374 297.8125 36.33125Q298.17188 35.3625 298.96875 34.425Q299.76562 33.4875 301.26562 32.253124Q303.60938 30.346874 304.42188 29.2375Q305.25 28.1125 305.25 27.1125Q305.25 26.065624 304.5 25.346874Q303.75 24.628124 302.54688 24.628124Q301.28125 24.628124 300.51562 25.39375Q299.75 26.159374 299.75 27.503124L297.9375 27.315624Q298.125 25.3 299.32812 24.2375Q300.54688 23.175 302.59375 23.175Q304.64062 23.175 305.84375 24.315624Q307.04688 25.45625 307.04688 27.14375Q307.04688 28.003124 306.6875 28.846874Q306.34375 29.675 305.53125 30.596874Q304.71875 31.503124 302.82812 33.1125Q301.23438 34.440624 300.78125 34.909374Q300.34375 35.378124 300.04688 35.8625L307.0625 35.8625ZM311.53125 29.784374Q310.4375 29.378124 309.90625 28.64375Q309.39062 27.89375 309.39062 26.8625Q309.39062 25.3 310.51562 24.2375Q311.64062 23.175 313.5 23.175Q315.375 23.175 316.51562 24.26875Q317.65625 25.346874 317.65625 26.909374Q317.65625 27.909374 317.125 28.64375Q316.60938 29.378124 315.54688 29.784374Q316.875 30.221874 317.5625 31.175Q318.25 32.128124 318.25 33.45625Q318.25 35.3 316.9375 36.55Q315.64062 37.8 313.53125 37.8Q311.40625 37.8 310.10938 36.55Q308.8125 35.284374 308.8125 33.409374Q308.8125 32.01875 309.51562 31.08125Q310.23438 30.128124 311.53125 29.784374ZM311.1875 26.8Q311.1875 27.815624 311.84375 28.471874Q312.5 29.1125 313.53125 29.1125Q314.54688 29.1125 315.20312 28.471874Q315.85938 27.83125 315.85938 26.909374Q315.85938 25.940624 315.1875 25.284374Q314.51562 24.6125 313.51562 24.6125Q312.51562 24.6125 311.84375 25.26875Q311.1875 25.909374 311.1875 26.8ZM310.625 33.425Q310.625 34.175 310.96875 34.878124Q311.32812 35.58125 312.03125 35.971874Q312.73438 36.346874 313.54688 36.346874Q314.8125 36.346874 315.625 35.534374Q316.45312 34.721874 316.45312 33.471874Q316.45312 32.20625 315.60938 31.378124Q314.76562 30.55 313.48438 30.55Q312.25 30.55 311.4375 31.378124Q310.625 32.190624 310.625 33.425ZM326.46875 37.55L326.46875 23.2375L328.35938 23.2375L328.35938 35.8625L335.40625 35.8625L335.40625 37.55L326.46875 37.55ZM337.48438 37.55L337.48438 23.2375L340.34375 23.2375L343.71875 33.3625Q344.1875 34.784374 344.40625 35.4875Q344.65625 34.70625 345.17188 33.190624L348.59375 23.2375L351.14062 23.2375L351.14062 37.55L349.32812 37.55L349.32812 25.565624L345.15625 37.55L343.45312 37.55L339.3125 25.3625L339.3125 37.55L337.48438 37.55ZM363.9375 23.2375L365.82812 23.2375L365.82812 31.503124Q365.82812 33.659374 365.34375 34.940624Q364.85938 36.20625 363.57812 37.003124Q362.3125 37.8 360.23438 37.8Q358.21875 37.8 356.9375 37.1125Q355.67188 36.409374 355.125 35.096874Q354.57812 33.784374 354.57812 31.503124L354.57812 23.2375L356.46875 23.2375L356.46875 31.4875Q356.46875 33.3625 356.8125 34.253124Q357.15625 35.128124 358.0 35.6125Q358.84375 36.08125 360.07812 36.08125Q362.15625 36.08125 363.04688 35.14375Q363.9375 34.190624 363.9375 31.4875L363.9375 23.2375ZM367.46875 37.55L367.46875 23.2375L369.35938 23.2375L369.35938 35.8625L376.40625 35.8625L376.40625 37.55L367.46875 37.55ZM387.5625 29.128124L378.10938 29.128124L378.10938 27.4875L387.5625 27.4875L387.5625 29.128124ZM387.5625 33.471874L378.10938 33.471874L378.10938 31.83125L387.5625 31.83125L387.5625 33.471874ZM396.45312 37.55L394.6875 37.55L394.6875 26.346874Q394.0625 26.95625 393.03125 27.565624Q392.0 28.159374 391.17188 28.471874L391.17188 26.76875Q392.65625 26.08125 393.75 25.096874Q394.85938 24.096874 395.3125 23.175L396.45312 23.175L396.45312 37.55Z" fill-rule="nonzero"/></svg>